<svg width="700" height="700" viewBox="0 0 700 700" fill="none" xmlns="http://www.w3.org/2000/svg">
<rect x="50" y="50" width="600" height="600" rx="300" stroke="#D9EBBE" stroke-width="100"/>
<path d="M331.148 635.347C333.139 635.481 334.746 636.014 335.971 636.946C337.167 637.904 337.724 638.982 337.643 640.182C337.6 640.81 337.405 641.262 337.058 641.54C336.71 641.818 336.291 641.94 335.8 641.907C335.173 641.865 334.696 641.627 334.369 641.194C334.467 639.749 334.213 638.636 333.608 637.855C333.004 637.075 332.047 636.64 330.738 636.552C329.538 636.471 328.577 636.707 327.854 637.261C327.132 637.815 326.734 638.638 326.66 639.728C326.603 640.574 326.775 641.27 327.177 641.818C327.578 642.366 328.122 642.827 328.809 643.202C329.496 643.577 330.239 643.942 331.036 644.298C331.887 644.684 332.72 645.124 333.536 645.617C334.352 646.11 335.01 646.716 335.509 647.435C336.007 648.181 336.221 649.072 336.151 650.108C336.049 651.608 335.367 652.781 334.105 653.628C332.842 654.474 331.202 654.829 329.184 654.692C328.039 654.615 327.012 654.395 326.105 654.032C325.198 653.67 324.491 653.197 323.982 652.615C323.472 652.06 323.239 651.442 323.285 650.76C323.32 650.242 323.512 649.844 323.859 649.566C324.205 649.315 324.623 649.207 325.114 649.24C325.55 649.269 325.949 649.447 326.311 649.773C326.235 650.891 326.491 651.771 327.078 652.413C327.664 653.056 328.503 653.414 329.594 653.487C330.603 653.555 331.424 653.364 332.057 652.914C332.69 652.464 333.035 651.816 333.093 650.97C333.14 650.261 332.989 649.662 332.639 649.173C332.259 648.709 331.752 648.305 331.118 647.96C330.484 647.616 329.808 647.269 329.092 646.92C328.162 646.501 327.249 646.028 326.353 645.502C325.43 644.974 324.679 644.32 324.102 643.542C323.522 642.79 323.273 641.815 323.354 640.615C323.433 639.442 323.816 638.44 324.502 637.61C325.187 636.807 326.104 636.198 327.256 635.783C328.405 635.394 329.702 635.249 331.148 635.347ZM312.452 633.441C313.994 633.664 315.113 634.336 315.807 635.458C316.497 636.607 316.684 638.277 316.368 640.468L314.845 651.019L314.324 650.323L316.776 651.132C316.961 651.186 317.092 651.33 317.169 651.562C317.242 651.821 317.246 652.18 317.179 652.64C316.132 652.627 315.347 652.611 314.825 652.59C314.272 652.593 313.834 652.572 313.509 652.525C312.779 652.419 312.263 652.165 311.962 651.763C311.634 651.357 311.525 650.775 311.634 650.017L313.069 640.075C313.28 638.614 313.152 637.491 312.685 636.706C312.188 635.944 311.371 635.48 310.235 635.316C309.504 635.211 308.81 635.235 308.153 635.389C307.469 635.539 306.854 635.781 306.308 636.117C305.732 636.475 305.231 636.886 304.805 637.35L305.188 636.701L303.361 649.362L302.84 648.665L305.332 649.48C305.518 649.535 305.649 649.678 305.726 649.91C305.772 650.165 305.762 650.523 305.695 650.983C304.648 650.97 303.863 650.953 303.341 650.933C302.788 650.936 302.363 650.916 302.066 650.873C301.308 650.764 300.779 650.508 300.478 650.105C300.177 649.703 300.081 649.123 300.191 648.365L302.059 635.421C302.125 634.961 302.082 634.595 301.927 634.325C301.746 634.05 301.48 633.887 301.128 633.836C300.83 633.793 300.509 633.816 300.165 633.905C299.79 634.016 299.452 634.161 299.15 634.338L298.983 633.195C299.517 632.748 300.144 632.424 300.863 632.224C301.583 632.024 302.253 631.969 302.876 632.059C303.714 632.18 304.338 632.546 304.747 633.157C305.152 633.796 305.28 634.629 305.132 635.657L305.335 635.686C307.483 633.815 309.855 633.066 312.452 633.441ZM295.364 631.327C295.149 632.175 294.815 632.598 294.365 632.596L291.908 632.774L292.486 632.329L288.764 646.951L288.439 646.233L290.672 647.267C291.049 647.448 291.13 647.962 290.914 648.81C289.867 648.712 289.085 648.626 288.568 648.551C288.018 648.495 287.571 648.424 287.227 648.336C286.538 648.161 286.092 647.864 285.888 647.445C285.684 647.027 285.68 646.434 285.876 645.665L286.25 644.195L286.379 644.355L286.021 644.264C284.704 645.226 283.293 645.896 281.786 646.274C280.253 646.646 278.877 646.676 277.659 646.366C276.176 645.988 275.211 645.179 274.766 643.937C274.32 642.696 274.371 641.002 274.917 638.856L277.567 628.446L277.902 629.124L275.362 627.8C275.463 627.403 275.594 627.112 275.754 626.927C275.88 626.762 276.1 626.62 276.412 626.502L283.365 628.272C283.149 629.12 282.816 629.543 282.365 629.541L280.227 629.631L280.806 629.186L278.155 639.596C277.441 642.404 278.077 644.061 280.063 644.566C280.805 644.755 281.587 644.785 282.41 644.656C283.225 644.554 284.019 644.318 284.789 643.95C285.527 643.602 286.185 643.177 286.764 642.676L286.254 643.35L289.288 631.43L289.623 632.108L287.083 630.784C287.184 630.387 287.315 630.096 287.475 629.911C287.602 629.746 287.834 629.608 288.173 629.496L295.364 631.327ZM271.644 625.289C271.428 626.136 271.095 626.559 270.644 626.557L268.506 626.647L269.084 626.202L266.434 636.612C265.719 639.42 266.355 641.077 268.342 641.583C269.428 641.859 270.585 641.801 271.813 641.409C273.008 641.036 274.055 640.47 274.953 639.712L274.975 641.452L274.379 641.3C273.036 642.256 271.611 642.923 270.105 643.301C268.572 643.672 267.196 643.702 265.978 643.392C264.468 643.008 263.49 642.195 263.045 640.953C262.599 639.712 262.649 638.018 263.196 635.872L265.805 625.621L266.151 626.259L263.403 624.756C263.504 624.359 263.634 624.067 263.794 623.882C263.921 623.717 264.14 623.576 264.452 623.458L271.644 625.289ZM260.16 622.206C259.838 623.019 259.454 623.396 259.007 623.337L256.547 623.201L257.178 622.833L251.623 636.861L251.392 636.108L253.475 637.418C253.826 637.645 253.84 638.165 253.518 638.979C252.492 638.749 251.727 638.564 251.224 638.423C250.686 638.298 250.252 638.17 249.921 638.039C249.26 637.778 248.856 637.426 248.707 636.985C248.558 636.544 248.63 635.955 248.922 635.218L249.48 633.808L249.587 633.983L249.244 633.847C247.816 634.633 246.33 635.118 244.788 635.301C243.22 635.474 241.852 635.329 240.683 634.866C239.259 634.302 238.406 633.377 238.122 632.088C237.839 630.8 238.105 629.127 238.92 627.068L242.875 617.081L243.121 617.796L240.77 616.159C240.921 615.778 241.088 615.506 241.27 615.343C241.417 615.195 241.652 615.083 241.977 615.005L248.648 617.647C248.326 618.46 247.941 618.837 247.494 618.778L245.362 618.595L245.993 618.227L242.038 628.215C240.971 630.909 241.391 632.633 243.297 633.388C244.008 633.669 244.78 633.799 245.612 633.775C246.435 633.778 247.251 633.645 248.063 633.379C248.838 633.127 249.545 632.79 250.183 632.366L249.591 632.97L254.12 621.534L254.366 622.249L252.016 620.612C252.167 620.231 252.333 619.959 252.515 619.796C252.662 619.648 252.91 619.541 253.26 619.474L260.16 622.206ZM237.402 613.194C237.08 614.007 236.696 614.384 236.249 614.325L234.117 614.142L234.747 613.774L230.792 623.762C229.726 626.455 230.145 628.18 232.051 628.934C233.093 629.347 234.248 629.437 235.516 629.204C236.749 628.987 237.859 628.559 238.847 627.921L238.647 629.65L238.075 629.424C236.621 630.2 235.123 630.68 233.581 630.863C232.013 631.036 230.644 630.891 229.475 630.428C228.027 629.854 227.161 628.923 226.877 627.635C226.593 626.347 226.859 624.674 227.674 622.615L231.569 612.78L231.83 613.457L229.296 611.615C229.447 611.234 229.614 610.962 229.796 610.799C229.943 610.651 230.178 610.539 230.503 610.462L237.402 613.194ZM219.464 604.595C220.945 605.36 222.075 606.359 222.854 607.591C223.596 608.836 223.963 610.209 223.956 611.713C223.949 613.217 223.544 614.746 222.741 616.3C221.826 618.073 220.64 619.476 219.184 620.508C217.704 621.528 216.131 622.131 214.466 622.318C212.802 622.504 211.24 622.221 209.783 621.468C208.52 620.816 207.578 619.961 206.956 618.901C206.297 617.854 205.964 616.682 205.956 615.386C205.948 614.09 206.289 612.774 206.979 611.438C207.217 610.977 207.465 610.705 207.723 610.623C207.968 610.565 208.2 610.592 208.419 610.705L219.895 616.63L219.312 617.759L209.271 612.898L209.878 612.704C209.228 613.845 208.853 614.928 208.754 615.954C208.631 616.967 208.754 617.861 209.123 618.636C209.455 619.423 210.022 620.023 210.823 620.437C212.159 621.126 213.572 621.071 215.061 620.271C216.551 619.472 217.879 617.942 219.045 615.684C219.797 614.226 220.249 612.845 220.401 611.539C220.515 610.244 220.316 609.08 219.804 608.047C219.292 607.013 218.453 606.196 217.287 605.594C216.315 605.092 215.255 604.852 214.105 604.874C212.944 604.92 211.778 605.211 210.61 605.746L210.607 604.59C211.493 604.125 212.457 603.808 213.498 603.638C214.527 603.492 215.554 603.499 216.578 603.659C217.579 603.807 218.541 604.119 219.464 604.595ZM208.013 599.117C207.59 599.819 207.148 600.128 206.689 600.043L204.285 599.504L205.031 599.139L197.18 612.167L197.076 611.387L198.915 613.021C199.05 613.167 199.109 613.362 199.089 613.605C199.056 613.873 198.927 614.193 198.701 614.568C197.703 614.158 196.968 613.843 196.495 613.621C196.008 613.424 195.612 613.233 195.308 613.049C194.746 612.711 194.423 612.293 194.34 611.796C194.242 611.322 194.412 610.723 194.85 609.997L195.738 608.522L195.822 608.86L195.471 608.648C194.176 609.367 192.867 609.791 191.545 609.92C190.199 610.035 189.105 609.838 188.262 609.33C187.373 608.794 186.861 608.214 186.726 607.59C186.577 606.99 186.679 606.397 187.032 605.812C187.3 605.367 187.673 605.065 188.152 604.907C188.607 604.734 189.045 604.775 189.466 605.029C189.427 605.835 189.52 606.45 189.744 606.872C189.968 607.294 190.291 607.632 190.712 607.886C191.368 608.281 192.235 608.405 193.313 608.257C194.392 608.109 195.47 607.802 196.549 607.335L195.901 607.854L202.166 597.46L202.277 598.389L199.624 595.88C199.835 595.529 200.044 595.288 200.251 595.157C200.434 595.012 200.704 594.935 201.06 594.927L208.013 599.117ZM178.125 578.757C179.478 579.777 180.445 580.969 181.026 582.332C181.585 583.678 181.734 585.092 181.473 586.573C181.212 588.053 180.529 589.525 179.426 590.987C178.192 592.623 176.789 593.824 175.218 594.591C173.608 595.362 171.973 595.669 170.311 595.511C168.633 595.375 167.075 594.764 165.634 593.677C164.653 592.936 163.881 592.098 163.321 591.161C162.744 590.247 162.433 589.344 162.386 588.453C162.317 587.545 162.53 586.764 163.024 586.109C163.353 585.673 163.748 585.423 164.207 585.358C164.628 585.299 165.057 585.435 165.493 585.764C165.69 585.912 165.859 586.074 166 586.249C166.125 586.446 166.242 586.654 166.351 586.873C165.479 588.03 165.085 589.119 165.169 590.142C165.232 591.148 165.776 592.038 166.801 592.811C168.198 593.865 169.687 594.115 171.268 593.562C172.833 593.031 174.389 591.74 175.937 589.689C177.55 587.551 178.373 585.621 178.406 583.899C178.4 582.182 177.589 580.715 175.975 579.497C175.102 578.838 174.13 578.379 173.059 578.119C171.95 577.864 170.803 577.82 169.616 577.986L169.783 576.879C170.669 576.658 171.615 576.584 172.621 576.658C173.588 576.737 174.547 576.964 175.497 577.339C176.442 577.675 177.318 578.147 178.125 578.757ZM162.659 566.249C164.571 567.924 165.56 569.843 165.625 572.009C165.691 574.174 164.851 576.253 163.104 578.248C161.753 579.79 160.228 580.888 158.528 581.543C156.807 582.18 155.075 582.353 153.332 582.061C151.589 581.77 149.987 580.985 148.528 579.706C147.253 578.589 146.396 577.348 145.957 575.983C145.5 574.638 145.447 573.247 145.797 571.809C146.147 570.372 146.908 568.985 148.079 567.649C149.447 566.086 150.982 564.978 152.682 564.323C154.364 563.689 156.086 563.526 157.85 563.836C159.575 564.148 161.178 564.952 162.659 566.249ZM161.154 566.784C159.776 565.577 158.231 565.205 156.519 565.667C154.785 566.111 153.045 567.33 151.298 569.325C149.551 571.319 148.559 573.157 148.322 574.838C148.084 576.52 148.634 577.946 149.97 579.117C151.348 580.323 152.903 580.705 154.637 580.261C156.352 579.837 158.101 578.608 159.884 576.572C161.631 574.578 162.623 572.74 162.861 571.058C163.059 569.379 162.491 567.955 161.154 566.784ZM151.521 557.039C151.194 557.368 150.914 557.572 150.683 557.65C150.451 557.728 150.229 557.72 150.016 557.624L147.721 556.443L148.446 556.354L129.64 575.295L129.724 574.511L131.21 576.623C131.443 576.97 131.252 577.453 130.635 578.074C129.899 577.536 129.279 577.074 128.775 576.689C128.271 576.304 127.816 575.91 127.408 575.505C126.516 574.62 126.628 573.614 127.745 572.489L146.031 554.072L146.005 554.797L144.197 551.904C144.486 551.613 144.746 551.429 144.978 551.351C145.171 551.273 145.441 551.272 145.789 551.348L151.521 557.039ZM141.971 547.464C141.629 547.778 141.34 547.968 141.105 548.035C140.87 548.103 140.648 548.083 140.44 547.978L138.203 546.691L138.931 546.636L119.259 564.675L119.38 563.897L120.766 566.075C120.982 566.433 120.768 566.907 120.124 567.498C119.413 566.926 118.816 566.436 118.33 566.028C117.845 565.62 117.408 565.204 117.02 564.781C116.17 563.855 116.33 562.856 117.498 561.784L136.626 544.243L136.566 544.966L134.896 541.992C135.198 541.715 135.466 541.543 135.701 541.476C135.898 541.407 136.168 541.418 136.512 541.511L141.971 547.464ZM128.327 531.049C129.38 532.342 130.017 533.708 130.239 535.149C130.422 536.586 130.211 537.993 129.604 539.368C128.997 540.744 128.015 541.984 126.659 543.089C125.112 544.349 123.465 545.162 121.718 545.527C119.953 545.871 118.271 545.797 116.67 545.303C115.069 544.809 113.751 543.926 112.715 542.654C111.817 541.552 111.295 540.392 111.147 539.172C110.962 537.948 111.124 536.741 111.634 535.55C112.145 534.359 112.983 533.288 114.148 532.339C114.551 532.011 114.887 531.861 115.156 531.888C115.404 531.933 115.606 532.051 115.761 532.241L123.917 542.255L122.932 543.058L115.666 534.592L116.301 534.657C115.249 535.443 114.473 536.287 113.973 537.188C113.456 538.067 113.211 538.936 113.24 539.794C113.231 540.648 113.511 541.424 114.08 542.124C115.03 543.289 116.347 543.803 118.032 543.664C119.717 543.526 121.545 542.654 123.516 541.048C124.788 540.013 125.753 538.926 126.414 537.789C127.035 536.648 127.318 535.502 127.261 534.349C127.204 533.197 126.761 532.113 125.932 531.095C125.242 530.248 124.365 529.604 123.303 529.166C122.219 528.744 121.035 528.545 119.75 528.569L120.208 527.509C121.206 527.436 122.217 527.529 123.239 527.789C124.241 528.067 125.179 528.483 126.055 529.039C126.914 529.573 127.671 530.243 128.327 531.049ZM115.975 514.843C116.95 516.229 117.506 517.66 117.641 519.135C117.762 520.588 117.471 521.979 116.769 523.309C116.067 524.639 114.967 525.831 113.469 526.885C111.793 528.064 110.09 528.779 108.359 529.027C106.591 529.269 104.94 529.061 103.407 528.402C101.851 527.758 100.554 526.699 99.5158 525.224C98.8079 524.218 98.3305 523.184 98.0837 522.121C97.8146 521.073 97.7942 520.118 98.0227 519.256C98.2354 518.371 98.677 517.692 99.3476 517.22C99.7946 516.906 100.247 516.788 100.704 516.867C101.123 516.94 101.489 517.2 101.804 517.647C101.946 517.848 102.057 518.054 102.138 518.264C102.197 518.49 102.245 518.724 102.281 518.966C101.096 519.8 100.388 520.716 100.155 521.716C99.9068 522.693 100.152 523.706 100.892 524.757C101.899 526.188 103.239 526.882 104.914 526.839C106.567 526.813 108.444 526.06 110.545 524.581C112.735 523.039 114.109 521.454 114.667 519.825C115.187 518.189 114.865 516.544 113.701 514.889C113.071 513.995 112.287 513.261 111.347 512.685C110.369 512.103 109.29 511.71 108.11 511.505L108.608 510.502C109.519 510.563 110.442 510.782 111.377 511.16C112.274 511.532 113.117 512.042 113.907 512.689C114.703 513.298 115.393 514.016 115.975 514.843ZM105.86 499.69C106.549 500.807 106.716 501.86 106.362 502.849C105.994 503.814 105.101 504.735 103.682 505.61L88.7453 514.82C88.4301 514.726 88.1094 514.57 87.7833 514.354C87.4196 514.129 87.072 513.877 86.7404 513.6C86.3946 513.3 86.1096 512.994 85.8854 512.682L101.52 503.041C102.427 502.482 103.011 501.945 103.272 501.431C103.496 500.908 103.399 500.309 102.983 499.634C102.653 499.099 102.185 498.601 101.58 498.139C100.96 497.654 100.214 497.279 99.3439 497.013L99.915 495.987C100.384 496.018 101 496.184 101.763 496.484C102.512 496.761 103.26 497.167 104.007 497.702C104.755 498.236 105.372 498.899 105.86 499.69ZM89.2112 504.562L94.9548 514.267C94.6291 514.468 94.3168 514.612 94.0178 514.7C93.6813 514.779 93.4046 514.773 93.1878 514.682L86.7783 505.147C86.8659 505.029 86.9607 504.922 87.0627 504.827C87.1414 504.747 87.2389 504.67 87.3552 504.599C87.7275 504.369 88.0846 504.245 88.4266 504.227C88.7453 504.223 89.0069 504.335 89.2112 504.562ZM100.62 491.964C99.8531 492.384 99.3166 492.429 99.0105 492.098L97.1448 490.316L97.8649 490.435L84.4911 497.768L84.7938 497.041L85.6205 499.486C85.7696 499.872 85.4488 500.282 84.6578 500.716C84.0912 499.966 83.6394 499.341 83.3024 498.84C82.9282 498.329 82.5966 497.809 82.3075 497.282C81.7031 496.179 82.0839 495.253 83.45 494.504L96.1767 487.527L95.9459 488.214L95.0521 484.964C95.4116 484.767 95.7135 484.663 95.9578 484.654C96.165 484.634 96.4247 484.71 96.737 484.882L100.62 491.964ZM78.7287 499.197C79.044 499.772 79.1313 500.301 78.9906 500.784C78.8259 501.279 78.4799 501.671 77.9526 501.961C77.4253 502.25 76.8954 502.306 76.3627 502.131C75.8169 501.931 75.4192 501.604 75.1695 501.148C74.8541 500.573 74.7788 500.038 74.9435 499.542C75.0711 499.036 75.4105 498.632 75.9618 498.329C76.4651 498.053 76.9897 498.015 77.5355 498.215C78.0681 498.39 78.4658 498.718 78.7287 499.197ZM91.3243 472.779C92.4041 475.08 92.5399 477.235 91.7317 479.245C90.9234 481.255 89.3192 482.823 86.9189 483.949C85.0631 484.82 83.2252 485.214 81.4053 485.132C79.5739 485.025 77.9182 484.489 76.4383 483.522C74.9584 482.556 73.8062 481.195 72.9819 479.438C72.262 477.904 71.9749 476.423 72.1206 474.996C72.2414 473.581 72.7506 472.285 73.6481 471.109C74.5456 469.933 75.7986 468.968 77.407 468.213C79.2876 467.331 81.1378 466.93 82.9577 467.013C84.7528 467.106 86.3961 467.649 87.8877 468.64C89.3428 469.617 90.4884 470.997 91.3243 472.779ZM89.7314 472.666C88.9535 471.008 87.6875 470.047 85.9333 469.783C84.1675 469.494 82.0844 469.913 79.6842 471.039C77.284 472.166 75.6378 473.451 74.7459 474.896C73.8539 476.341 73.7853 477.868 74.5399 479.477C75.3178 481.134 76.5897 482.108 78.3555 482.396C80.0966 482.697 82.192 482.272 84.6417 481.122C87.042 479.996 88.6881 478.711 89.5801 477.266C90.4357 475.807 90.4861 474.274 89.7314 472.666ZM84.8414 459.823C84.021 460.127 83.4837 460.092 83.2295 459.72L81.6882 457.798L82.4984 457.979L68.2317 463.255L68.6378 462.581L69.0539 465.006C69.1192 465.419 68.7416 465.777 67.9213 466.08C67.4072 465.163 67.0344 464.47 66.803 464.002C66.5365 463.518 66.3416 463.109 66.2184 462.776C65.9719 462.109 65.9631 461.573 66.1921 461.168C66.4211 460.763 66.9074 460.423 67.6508 460.148L69.0736 459.622L69.0436 459.895L68.8872 459.472C67.3287 458.883 65.9616 458.062 64.7859 457.011C63.6007 455.934 62.7759 454.767 62.3113 453.511C61.2116 450.537 62.7254 448.287 66.8529 446.761L76.7743 443.092L76.445 443.738L76.1233 440.622C76.5078 440.48 76.8169 440.409 77.0504 440.41C77.2583 440.421 77.4994 440.521 77.7737 440.711L80.3476 447.672C79.5272 447.975 78.9899 447.94 78.7357 447.568L77.4621 445.897L78.258 446.04L68.0675 449.809C65.35 450.813 64.3705 452.341 65.1289 454.392C65.4134 455.161 65.8516 455.874 66.4436 456.529C67.0006 457.168 67.6539 457.713 68.4037 458.165C69.1278 458.625 69.8652 458.965 70.616 459.183L69.7716 459.145L81.3081 454.879L80.9403 455.539L80.5886 452.697C80.9732 452.555 81.2869 452.497 81.53 452.524C81.7379 452.534 81.9837 452.647 82.2674 452.863L84.8414 459.823ZM72.0727 419.416C72.5473 421.354 72.5259 423.048 72.0085 424.497C71.4581 425.927 70.5988 426.784 69.4307 427.07C68.82 427.22 68.3297 427.171 67.9596 426.924C67.5896 426.677 67.346 426.315 67.229 425.837C67.0794 425.226 67.1615 424.699 67.4752 424.257C68.8823 423.912 69.8662 423.333 70.427 422.521C70.9877 421.708 71.112 420.664 70.7999 419.39C70.5138 418.222 69.9975 417.378 69.2508 416.857C68.5042 416.336 67.5999 416.206 66.538 416.466C65.715 416.668 65.1033 417.043 64.7029 417.591C64.3025 418.139 64.0275 418.798 63.878 419.566C63.7285 420.334 63.6052 421.152 63.5083 422.02C63.3978 422.948 63.2309 423.875 63.0077 424.802C62.7845 425.729 62.4061 426.539 61.8724 427.233C61.3122 427.933 60.5276 428.407 59.5188 428.654C58.0586 429.011 56.7341 428.717 55.5454 427.77C54.3566 426.822 53.5217 425.367 53.0405 423.402C52.7674 422.287 52.6663 421.242 52.7373 420.268C52.8082 419.294 53.0442 418.476 53.4451 417.815C53.8195 417.161 54.3385 416.752 55.0023 416.59C55.5067 416.466 55.9439 416.528 56.314 416.775C56.6575 417.029 56.8878 417.394 57.0048 417.872C57.1089 418.297 57.0604 418.731 56.8594 419.174C55.7709 419.441 55.0094 419.951 54.5749 420.705C54.1403 421.458 54.0531 422.366 54.3132 423.428C54.5538 424.41 54.9846 425.135 55.6055 425.602C56.2264 426.069 56.9484 426.202 57.7714 426C58.4616 425.831 58.9869 425.506 59.3472 425.023C59.6745 424.521 59.9061 423.916 60.0421 423.207C60.178 422.498 60.3043 421.75 60.4207 420.961C60.5383 419.948 60.7122 418.934 60.9424 417.921C61.1662 416.881 61.5617 415.968 62.129 415.182C62.6697 414.402 63.5241 413.869 64.6922 413.583C65.8338 413.304 66.9042 413.365 67.9033 413.768C68.8759 414.177 69.7344 414.867 70.4788 415.839C71.1968 416.817 71.728 418.009 72.0727 419.416ZM68.21 401.002C68.4673 402.538 68.1672 403.808 67.3097 404.811C66.4252 405.818 64.8912 406.504 62.7076 406.87L52.1939 408.631L52.6989 407.922L52.6739 410.504C52.6786 410.697 52.5821 410.866 52.3845 411.01C52.1599 411.158 51.8185 411.271 51.3602 411.348C51.0539 410.346 50.8309 409.593 50.6912 409.09C50.52 408.564 50.4074 408.14 50.3532 407.816C50.2313 407.088 50.3163 406.52 50.608 406.111C50.8953 405.675 51.4163 405.394 52.1712 405.267L62.0782 403.608C63.534 403.364 64.5649 402.901 65.171 402.217C65.7456 401.511 65.9382 400.592 65.7486 399.46C65.6267 398.732 65.3925 398.079 65.0461 397.499C64.6951 396.893 64.2768 396.381 63.7912 395.963C63.2741 395.523 62.7301 395.171 62.1592 394.906L62.894 395.074L50.2777 397.187L50.7827 396.479L50.7645 399.101C50.7691 399.294 50.6726 399.463 50.475 399.607C50.2459 399.728 49.9023 399.827 49.444 399.904C49.1376 398.902 48.9146 398.15 48.7749 397.646C48.6038 397.121 48.4934 396.71 48.4437 396.413C48.3173 395.658 48.4 395.076 48.6918 394.667C48.9836 394.258 49.5069 393.99 50.2617 393.864L63.1611 391.704C63.6194 391.627 63.954 391.474 64.1651 391.245C64.3716 390.988 64.4455 390.685 64.3868 390.335C64.3371 390.038 64.2178 389.739 64.0289 389.438C63.8084 389.115 63.5678 388.837 63.307 388.603L64.3446 388.097C64.9336 388.469 65.4328 388.968 65.8421 389.592C66.2515 390.216 66.5081 390.839 66.612 391.459C66.7519 392.294 66.5929 393 66.135 393.575C65.6502 394.155 64.8955 394.531 63.8711 394.703L63.905 394.905C66.3416 396.382 67.7766 398.414 68.21 401.002ZM65.0228 384.081C64.1497 384.133 63.6455 383.945 63.5101 383.515L62.5924 381.229L63.1924 381.644L48.1316 382.549L48.7159 382.021L48.4108 384.463C48.3535 384.877 47.8884 385.11 47.0153 385.163C46.7893 384.136 46.6334 383.365 46.5477 382.85C46.4331 382.309 46.3651 381.861 46.3438 381.506C46.3012 380.797 46.4482 380.282 46.7849 379.96C47.1215 379.639 47.6855 379.454 48.4767 379.407L49.991 379.316L49.8781 379.487L49.8559 379.119C48.5386 378.157 47.4706 377.017 46.652 375.697C45.8317 374.349 45.3839 373.048 45.3085 371.793C45.2167 370.265 45.6944 369.1 46.7415 368.298C47.7886 367.496 49.4171 367.028 51.6272 366.895L62.3498 366.251L61.8064 366.777L62.294 363.954C62.7033 363.93 63.0203 363.966 63.2451 364.062C63.441 364.132 63.6427 364.298 63.8501 364.559L64.2803 371.721C63.4072 371.774 62.903 371.585 62.7676 371.155L62.0308 369.146L62.6308 369.561L51.9082 370.205C49.016 370.379 47.6314 371.489 47.7544 373.536C47.8003 374.3 48.0099 375.054 48.3832 375.798C48.7292 376.544 49.1947 377.228 49.7797 377.85C50.3358 378.446 50.9407 378.944 51.5945 379.343L50.7972 379.062L63.0751 378.324L62.5316 378.85L63.0193 376.028C63.4285 376.003 63.7456 376.039 63.9704 376.135C64.1663 376.205 64.3688 376.385 64.5778 376.673L65.0228 384.081ZM63.555 359.648C62.6819 359.701 62.1777 359.512 62.0424 359.082L61.3055 357.072L61.9055 357.488L51.1829 358.132C48.2907 358.306 46.9062 359.416 47.0291 361.462C47.0963 362.581 47.5037 363.666 48.2514 364.716C48.9701 365.741 49.8275 366.565 50.8234 367.19L49.1725 367.741L49.1356 367.127C47.8166 366.139 46.7478 364.984 45.9291 363.664C45.1089 362.317 44.6611 361.016 44.5857 359.761C44.4922 358.206 44.9691 357.027 46.0162 356.225C47.0633 355.422 48.6919 354.955 50.9019 354.822L61.4608 354.188L60.9583 354.711L61.554 351.636C61.9632 351.611 62.2803 351.647 62.5051 351.743C62.701 351.813 62.9026 351.979 63.11 352.24L63.555 359.648ZM62.9928 347.735C62.12 347.678 61.6433 347.428 61.5627 346.984L60.9377 344.601L61.4811 345.089L46.4252 344.105L47.071 343.654L46.4632 346.039C46.3547 346.443 45.864 346.616 44.9912 346.559C44.8953 345.512 44.8369 344.727 44.8163 344.205C44.7701 343.655 44.7586 343.202 44.7817 342.847C44.8281 342.138 45.0383 341.645 45.4125 341.368C45.7867 341.091 46.3693 340.979 47.1602 341.031L48.674 341.129L48.5406 341.285L48.5646 340.917C47.3777 339.798 46.4606 338.533 45.8133 337.121C45.1677 335.682 44.8859 334.335 44.9679 333.081C45.0677 331.553 45.6872 330.457 46.8263 329.792C47.9654 329.127 49.6396 328.866 51.8489 329.011L62.5681 329.711L61.9632 330.165L62.7996 327.425C63.2087 327.452 63.5188 327.527 63.7299 327.65C63.9155 327.745 64.0948 327.934 64.2679 328.22L63.8001 335.379C62.9273 335.322 62.4506 335.072 62.37 334.629L61.89 332.543L62.4334 333.03L51.7142 332.33C48.823 332.141 47.3106 333.069 47.177 335.115C47.1271 335.879 47.2408 336.653 47.5182 337.438C47.7684 338.222 48.1448 338.958 48.6475 339.649C49.1248 340.31 49.6628 340.879 50.2616 341.356L49.5056 340.978L61.7795 341.78L61.1746 342.234L62.011 339.495C62.4201 339.521 62.7302 339.596 62.9413 339.72C63.1269 339.814 63.3053 340.017 63.4766 340.33L62.9928 347.735ZM64.5887 323.31C63.7159 323.253 63.2392 323.003 63.1586 322.559L62.6786 320.474L63.2219 320.961L52.5028 320.261C49.6116 320.072 48.0992 321 47.9656 323.046C47.8925 324.164 48.1613 325.291 48.7718 326.427C49.357 327.533 50.1045 328.458 51.0146 329.203L49.3078 329.543L49.3479 328.929C48.1627 327.784 47.2465 326.505 46.5992 325.093C45.9536 323.654 45.6718 322.307 45.7538 321.052C45.8554 319.498 46.4758 318.388 47.6149 317.723C48.754 317.057 50.4282 316.797 52.6375 316.941L63.193 317.631L62.629 318.087L63.6042 315.111C64.0133 315.137 64.3234 315.212 64.5345 315.336C64.7201 315.43 64.8994 315.62 65.0725 315.905L64.5887 323.31ZM67.2635 303.583C66.9914 305.228 66.3888 306.61 65.4555 307.73C64.4997 308.819 63.3053 309.591 61.8725 310.047C60.4396 310.502 58.8602 310.587 57.1343 310.302C55.1657 309.976 53.4663 309.28 52.036 308.212C50.6102 307.117 49.5526 305.806 48.8632 304.279C48.1738 302.752 47.9629 301.18 48.2305 299.562C48.4624 298.16 48.9868 297 49.8035 296.082C50.5977 295.133 51.6101 294.455 52.8409 294.049C54.0716 293.643 55.4286 293.563 56.9117 293.808C57.4241 293.893 57.7591 294.046 57.9166 294.266C58.0472 294.481 58.0924 294.71 58.0523 294.953L55.9448 307.695L54.6908 307.487L56.2275 296.438L56.5988 296.957C55.3133 296.689 54.1674 296.665 53.1612 296.887C52.1593 297.081 51.3465 297.473 50.7226 298.062C50.0762 298.62 49.6794 299.344 49.5322 300.234C49.2869 301.718 49.7739 303.045 50.9931 304.216C52.2123 305.387 54.0758 306.18 56.5838 306.595C58.2018 306.863 59.6554 306.868 60.9448 306.61C62.2116 306.321 63.2579 305.774 64.0838 304.968C64.9096 304.163 65.4296 303.113 65.6437 301.819C65.8221 300.74 65.7241 299.657 65.3498 298.57C64.9485 297.479 64.3137 296.459 63.4453 295.512L64.5435 295.154C65.2588 295.854 65.8575 296.673 66.3395 297.612C66.7945 298.546 67.1035 299.525 67.2665 300.55C67.434 301.547 67.433 302.558 67.2635 303.583ZM68.9522 291.02C68.154 290.833 67.7252 290.507 67.6658 290.044L67.443 287.59L68.0181 288.189L53.2118 284.704L53.9232 284.366L52.9299 286.617C52.8328 286.791 52.6654 286.906 52.4275 286.962C52.1629 287.012 51.8178 286.987 51.3921 286.887C51.4768 285.812 51.552 285.015 51.6178 284.497C51.6569 283.973 51.7173 283.537 51.7987 283.192C51.949 282.553 52.248 282.118 52.6956 281.886C53.1166 281.649 53.7396 281.627 54.5643 281.821L56.2405 282.215L55.9447 282.399L56.0387 281.999C54.9573 280.987 54.1529 279.871 53.6256 278.651C53.1046 277.406 52.9568 276.304 53.1822 275.346C53.4202 274.335 53.8155 273.67 54.368 273.35C54.8939 273.025 55.4895 272.941 56.1546 273.097C56.6601 273.216 57.0615 273.479 57.3589 273.886C57.6625 274.266 57.7579 274.696 57.6451 275.175C56.8657 275.385 56.3093 275.661 55.9759 276.004C55.6425 276.346 55.4194 276.757 55.3067 277.236C55.1313 277.981 55.2791 278.844 55.7501 279.825C56.2211 280.807 56.8439 281.74 57.6186 282.624L56.9261 282.166L68.7392 284.947L67.8893 285.337L69.4649 282.043C69.864 282.137 70.1574 282.262 70.3452 282.419C70.5393 282.549 70.695 282.782 70.8123 283.118L68.9522 291.02ZM79.1536 256.326C78.5961 257.926 77.7576 259.211 76.6381 260.182C75.5275 261.126 74.2275 261.701 72.7379 261.906C71.2483 262.11 69.6388 261.912 67.9094 261.309C65.9735 260.635 64.4003 259.667 63.1897 258.406C61.9624 257.11 61.1695 255.647 60.8111 254.017C60.4268 252.378 60.5314 250.707 61.1249 249.003C61.5295 247.842 62.0917 246.851 62.8116 246.031C63.5056 245.202 64.2697 244.628 65.1039 244.311C65.947 243.968 66.7557 243.931 67.5301 244.201C68.0463 244.381 68.4054 244.68 68.6072 245.097C68.7922 245.48 68.7948 245.93 68.615 246.446C68.5341 246.678 68.4318 246.889 68.3083 247.077C68.1589 247.257 67.9966 247.432 67.8215 247.602C66.4534 247.126 65.2956 247.084 64.3481 247.478C63.4096 247.846 62.729 248.636 62.3064 249.849C61.7309 251.501 61.9486 252.995 62.9593 254.331C63.9442 255.659 65.6498 256.745 68.0761 257.59C70.6057 258.471 72.695 258.663 74.3441 258.167C75.9764 257.636 77.1253 256.415 77.7906 254.505C78.1503 253.472 78.29 252.407 78.2097 251.308C78.1125 250.174 77.8032 249.068 77.2818 247.989L78.3864 247.809C78.8687 248.585 79.2286 249.463 79.4661 250.443C79.6868 251.388 79.7643 252.37 79.6987 253.39C79.668 254.392 79.4862 255.371 79.1536 256.326ZM86.3268 237.779C85.3168 240.112 83.7911 241.641 81.7498 242.365C79.7085 243.09 77.4713 242.925 75.0383 241.872C73.1571 241.057 71.6448 239.941 70.5016 238.522C69.3693 237.079 68.6754 235.483 68.4199 233.734C68.1644 231.985 68.4223 230.22 69.1934 228.439C69.8668 226.884 70.7864 225.689 71.9524 224.854C73.0933 224.007 74.4015 223.531 75.877 223.425C77.3525 223.32 78.9055 223.62 80.5358 224.326C82.4422 225.151 83.9669 226.273 85.1101 227.691C86.2282 229.099 86.9096 230.69 87.1542 232.463C87.3846 234.201 87.1088 235.973 86.3268 237.779ZM85.3571 236.511C86.0848 234.83 85.9669 233.245 85.0034 231.756C84.0508 230.241 82.358 228.957 79.9249 227.903C77.4919 226.85 75.4386 226.467 73.765 226.755C72.0914 227.043 70.9016 228.003 70.1957 229.633C69.468 231.314 69.5805 232.911 70.5331 234.426C71.4606 235.929 73.166 237.219 75.6492 238.294C78.0823 239.348 80.1356 239.73 81.8092 239.442C83.4685 239.118 84.6512 238.141 85.3571 236.511ZM91.6868 224.371C91.2729 224.159 90.9935 223.955 90.8484 223.758C90.7034 223.562 90.6441 223.347 90.6705 223.115L91.0952 220.57L91.4014 221.233L67.6291 209.096L68.4005 208.938L66.843 210.997C66.5836 211.325 66.0643 211.29 65.2853 210.892C65.5737 210.027 65.8243 209.295 66.0371 208.698C66.25 208.101 66.4869 207.547 66.7479 207.035C67.3196 205.916 68.3114 205.716 69.7234 206.437L92.8384 218.238L92.1399 218.433L94.3438 215.83C94.709 216.016 94.9641 216.208 95.1091 216.405C95.2422 216.565 95.3256 216.822 95.3593 217.177L91.6868 224.371ZM97.893 212.36C97.4896 212.13 97.2201 211.913 97.0845 211.709C96.9489 211.506 96.8997 211.289 96.9371 211.058L97.4814 208.536L97.7559 209.212L74.5826 195.968L75.3606 195.846L73.7077 197.83C73.4331 198.145 72.9161 198.086 72.1567 197.651C72.4856 196.801 72.7704 196.082 73.0112 195.495C73.2519 194.909 73.5147 194.366 73.7996 193.868C74.4234 192.776 75.4236 192.624 76.8 193.411L99.3326 206.288L98.6257 206.451L100.95 203.954C101.306 204.158 101.552 204.361 101.687 204.565C101.813 204.731 101.884 204.992 101.901 205.348L97.893 212.36ZM109.373 194.369C108.462 195.766 107.354 196.789 106.049 197.439C104.736 198.051 103.332 198.277 101.837 198.117C100.342 197.958 98.8615 197.4 97.3964 196.444C95.7253 195.354 94.4499 194.032 93.5703 192.479C92.7056 190.903 92.2649 189.278 92.2483 187.602C92.2317 185.927 92.6715 184.403 93.5676 183.029C94.3443 181.839 95.2911 180.988 96.4081 180.476C97.5171 179.927 98.7166 179.714 100.007 179.838C101.297 179.962 102.571 180.434 103.83 181.256C104.265 181.54 104.511 181.814 104.566 182.079C104.599 182.328 104.548 182.556 104.414 182.762L97.3567 193.579L96.2922 192.884L102.146 183.388L102.277 184.012C101.208 183.249 100.168 182.767 99.158 182.564C98.1626 182.339 97.2608 182.371 96.4524 182.659C95.6362 182.91 94.9816 183.413 94.4887 184.168C93.6672 185.428 93.5788 186.839 94.2236 188.401C94.8683 189.964 96.2551 191.44 98.3841 192.829C99.7576 193.726 101.086 194.315 102.37 194.598C103.646 194.843 104.825 194.763 105.905 194.358C106.985 193.953 107.883 193.202 108.6 192.103C109.198 191.187 109.544 190.156 109.639 189.011C109.71 187.85 109.539 186.661 109.126 185.445L110.275 185.559C110.648 186.487 110.867 187.478 110.93 188.532C110.971 189.57 110.86 190.591 110.597 191.594C110.349 192.574 109.941 193.5 109.373 194.369ZM121.052 177.673C120.029 179.024 118.835 179.988 117.471 180.567C116.123 181.123 114.709 181.269 113.229 181.005C111.749 180.741 110.279 180.056 108.819 178.95C107.185 177.712 105.987 176.306 105.224 174.734C104.455 173.123 104.152 171.487 104.313 169.826C104.452 168.148 105.067 166.59 106.156 165.152C106.899 164.172 107.739 163.403 108.677 162.844C109.593 162.269 110.496 161.959 111.387 161.914C112.295 161.848 113.076 162.062 113.73 162.557C114.165 162.887 114.415 163.282 114.478 163.742C114.536 164.163 114.4 164.591 114.07 165.027C113.921 165.223 113.759 165.392 113.584 165.533C113.386 165.658 113.178 165.774 112.959 165.883C111.804 165.008 110.716 164.612 109.693 164.694C108.687 164.755 107.796 165.297 107.02 166.321C105.963 167.715 105.71 169.204 106.26 170.786C106.788 172.352 108.076 173.911 110.124 175.463C112.259 177.081 114.187 177.907 115.909 177.943C117.626 177.941 119.095 177.133 120.316 175.521C120.977 174.65 121.438 173.679 121.7 172.609C121.957 171.5 122.004 170.352 121.84 169.165L122.946 169.335C123.166 170.221 123.238 171.167 123.162 172.173C123.08 173.14 122.852 174.098 122.475 175.048C122.137 175.992 121.663 176.867 121.052 177.673ZM132.411 163.422C131.557 164.418 130.605 164.898 129.556 164.863C128.524 164.806 127.375 164.235 126.11 163.15L112.787 151.729C112.781 151.4 112.832 151.047 112.938 150.67C113.042 150.255 113.176 149.848 113.339 149.448C113.52 149.027 113.724 148.662 113.953 148.354L127.898 160.309C128.707 161.002 129.396 161.395 129.965 161.487C130.532 161.541 131.073 161.267 131.589 160.665C131.998 160.187 132.33 159.59 132.585 158.873C132.858 158.134 132.988 157.31 132.976 156.4L134.128 156.631C134.241 157.088 134.27 157.725 134.217 158.544C134.181 159.341 134.023 160.177 133.741 161.052C133.459 161.926 133.016 162.716 132.411 163.422ZM122.7 149.048L115.206 157.475C114.915 157.226 114.683 156.972 114.508 156.714C114.33 156.418 114.251 156.152 114.272 155.918L121.402 146.909C121.541 146.956 121.671 147.014 121.793 147.082C121.894 147.133 121.996 147.203 122.1 147.291C122.432 147.576 122.659 147.879 122.78 148.199C122.881 148.501 122.854 148.784 122.7 149.048ZM138.176 156.075C137.542 155.473 137.336 154.975 137.558 154.583L138.687 152.263L138.792 152.985L127.732 142.483L128.517 142.549L126.44 144.082C126.118 144.342 125.63 144.161 124.976 143.54C125.516 142.772 125.974 142.151 126.348 141.677C126.722 141.165 127.116 140.691 127.53 140.255C128.395 139.343 129.393 139.424 130.523 140.496L141.048 150.49L140.323 150.48L143.146 148.638C143.443 148.92 143.634 149.176 143.717 149.406C143.799 149.597 143.806 149.868 143.738 150.218L138.176 156.075ZM124.614 137.43C124.163 137.906 123.686 138.15 123.183 138.163C122.661 138.157 122.182 137.947 121.746 137.533C121.31 137.119 121.094 136.632 121.099 136.071C121.123 135.49 121.313 135.012 121.671 134.635C122.123 134.16 122.61 133.925 123.132 133.93C123.653 133.898 124.141 134.098 124.597 134.531C125.014 134.926 125.21 135.414 125.186 135.994C125.181 136.555 124.991 137.034 124.614 137.43ZM153.615 141.375C151.752 143.104 149.741 143.891 147.58 143.733C145.42 143.576 143.438 142.526 141.634 140.583C140.239 139.08 139.303 137.45 138.827 135.692C138.37 133.915 138.377 132.174 138.846 130.47C139.315 128.767 140.261 127.254 141.683 125.934C142.925 124.781 144.248 124.056 145.651 123.76C147.036 123.444 148.426 123.534 149.819 124.03C151.212 124.527 152.514 125.426 153.723 126.728C155.136 128.25 156.081 129.891 156.557 131.649C157.015 133.387 156.999 135.118 156.51 136.84C156.022 138.524 155.057 140.036 153.615 141.375ZM153.237 139.823C154.579 138.577 155.109 137.078 154.826 135.327C154.562 133.557 153.529 131.701 151.725 129.758C149.921 127.815 148.194 126.639 146.546 126.23C144.898 125.821 143.423 126.221 142.121 127.43C140.779 128.676 140.24 130.184 140.503 131.953C140.748 133.703 141.79 135.57 143.632 137.552C145.436 139.495 147.162 140.671 148.81 141.081C150.46 141.451 151.935 141.032 153.237 139.823ZM163.999 131.23C163.459 130.543 163.327 130.021 163.603 129.665L164.959 127.608L165.035 128.435L155.636 116.475L156.402 116.655L154.222 117.795C153.849 117.984 153.392 117.735 152.852 117.047C153.567 116.276 154.112 115.709 154.486 115.345C154.865 114.943 155.195 114.632 155.474 114.412C156.033 113.973 156.54 113.8 156.996 113.894C157.452 113.987 157.925 114.346 158.415 114.969L159.352 116.162L159.083 116.217L159.437 115.938C159.52 114.274 159.881 112.721 160.521 111.28C161.183 109.821 162.04 108.678 163.093 107.85C165.586 105.891 168.192 106.641 170.911 110.101L177.448 118.418L176.732 118.303L179.599 117.041C179.852 117.363 180.014 117.636 180.085 117.858C180.138 118.059 180.117 118.319 180.02 118.639L174.186 123.224C173.645 122.537 173.513 122.015 173.789 121.659L174.989 119.934L175.097 120.735L168.383 112.193C166.593 109.915 164.838 109.451 163.119 110.803C162.474 111.309 161.931 111.945 161.489 112.709C161.051 113.436 160.733 114.225 160.533 115.077C160.317 115.907 160.221 116.713 160.244 117.495L160.02 116.68L167.621 126.35L166.879 126.203L169.477 124.996C169.73 125.318 169.881 125.599 169.93 125.839C169.984 126.04 169.952 126.309 169.834 126.645L163.999 131.23ZM198.56 106.667C196.863 107.717 195.245 108.219 193.707 108.174C192.178 108.091 191.097 107.538 190.464 106.515C190.134 105.981 190.029 105.499 190.149 105.071C190.27 104.643 190.54 104.299 190.958 104.04C191.493 103.71 192.019 103.625 192.537 103.787C193.299 105.019 194.153 105.777 195.099 106.06C196.045 106.342 197.076 106.139 198.192 105.449C199.215 104.816 199.859 104.064 200.124 103.194C200.389 102.323 200.234 101.422 199.659 100.492C199.213 99.7718 198.668 99.3056 198.023 99.0939C197.378 98.8822 196.667 98.8237 195.89 98.9185C195.113 99.0132 194.297 99.1484 193.441 99.3239C192.525 99.5049 191.591 99.6323 190.64 99.7059C189.69 99.7796 188.802 99.6695 187.978 99.3758C187.139 99.0589 186.447 98.4587 185.9 97.5753C185.11 96.2966 184.981 94.9458 185.516 93.5229C186.05 92.1 187.177 90.8566 188.897 89.7929C189.874 89.1891 190.836 88.7708 191.785 88.5377C192.733 88.3047 193.584 88.2769 194.336 88.4544C195.075 88.6086 195.623 88.9763 195.983 89.5575C196.256 89.9992 196.332 90.4342 196.211 90.8624C196.076 91.2674 195.799 91.5993 195.38 91.858C195.009 92.088 194.581 92.1758 194.097 92.1213C193.508 91.1681 192.788 90.6011 191.937 90.4203C191.086 90.2395 190.195 90.4366 189.265 91.0116C188.405 91.5434 187.849 92.1767 187.596 92.9114C187.343 93.6462 187.44 94.3739 187.885 95.0945C188.259 95.699 188.731 96.0982 189.301 96.2922C189.879 96.4485 190.527 96.4821 191.243 96.3928C191.959 96.3035 192.71 96.1927 193.496 96.0603C194.496 95.8594 195.514 95.7122 196.549 95.6186C197.607 95.5107 198.597 95.6053 199.52 95.9024C200.429 96.1762 201.199 96.8246 201.832 97.8475C202.45 98.8472 202.721 99.8843 202.647 100.959C202.558 102.01 202.166 103.04 201.472 104.048C200.763 105.032 199.792 105.905 198.56 106.667ZM214.869 97.3401C213.486 98.0562 212.185 98.1598 210.968 97.6511C209.738 97.1181 208.614 95.8685 207.597 93.9022L202.697 84.4348L203.526 84.6984L201.061 85.4662C200.879 85.5298 200.688 85.4897 200.491 85.3457C200.281 85.1775 200.069 84.8871 199.855 84.4744C200.715 83.8756 201.363 83.4326 201.799 83.1454C202.247 82.8213 202.616 82.5839 202.908 82.4331C203.563 82.0939 204.13 82.0004 204.609 82.1527C205.112 82.2924 205.54 82.7021 205.891 83.3818L210.508 92.3029C211.187 93.6138 211.944 94.4529 212.781 94.8202C213.629 95.1507 214.562 95.0522 215.582 94.5245C216.237 94.1853 216.788 93.762 217.233 93.2546C217.703 92.7346 218.062 92.1795 218.31 91.5892C218.57 90.9621 218.739 90.3363 218.816 89.7118L218.881 90.4627L213.002 79.1019L213.831 79.3654L211.329 80.1521C211.147 80.2157 210.957 80.1756 210.759 80.0316C210.573 79.8509 210.374 79.5541 210.16 79.1414C211.02 78.5427 211.668 78.0997 212.104 77.8124C212.552 77.4883 212.909 77.2572 213.176 77.119C213.856 76.7673 214.435 76.6675 214.914 76.8198C215.393 76.972 215.808 77.388 216.16 78.0677L222.171 89.6834C222.385 90.0961 222.633 90.3677 222.916 90.4982C223.223 90.6162 223.535 90.5935 223.85 90.4302C224.117 90.292 224.365 90.0869 224.594 89.8147C224.834 89.5058 225.025 89.1914 225.167 88.8715L225.967 89.7039C225.793 90.3787 225.472 91.0067 225.003 91.5878C224.535 92.1689 224.021 92.6039 223.463 92.8928C222.71 93.2823 221.99 93.3473 221.302 93.0879C220.601 92.8043 220.012 92.2012 219.534 91.2788L219.352 91.373C218.694 94.145 217.2 96.134 214.869 97.3401ZM230 89.1168C229.682 88.3019 229.707 87.764 230.075 87.5033L231.969 85.9285L231.758 86.6271L226.276 72.5701L226.958 72.9643L224.54 73.4229C224.128 73.4955 223.764 73.1243 223.446 72.3094C224.354 71.7793 225.04 71.3944 225.504 71.1548C225.984 70.8798 226.389 70.6777 226.72 70.5487C227.382 70.2905 227.918 70.2723 228.327 70.4941C228.736 70.7159 229.085 71.1961 229.373 71.9346L229.924 73.3479L229.726 73.2929L230.07 73.1589C230.581 71.6101 231.339 70.2437 232.344 69.0596C233.375 67.8656 234.476 67.0402 235.647 66.5834C237.073 66.0273 238.329 66.1245 239.414 66.875C240.498 67.6255 241.443 69.0321 242.247 71.0948L246.15 81.1028L245.483 80.7468L248.319 80.3451C248.468 80.7271 248.531 81.0398 248.509 81.2832C248.502 81.4913 248.406 81.7341 248.221 82.0117L241.536 84.6184C241.218 83.8035 241.243 83.2656 241.611 83.0049L243.297 81.6871L243.086 82.3858L239.183 72.3778C238.13 69.6784 236.649 68.7011 234.739 69.4459C234.026 69.7239 233.373 70.1548 232.779 70.7384C232.175 71.2966 231.667 71.9495 231.254 72.6971C230.857 73.4093 230.569 74.1378 230.39 74.8824L230.413 74.0374L234.881 85.497L234.214 85.141L237.05 84.7392C237.199 85.1212 237.263 85.4339 237.24 85.6774C237.233 85.8854 237.124 86.1332 236.914 86.4207L230 89.1168ZM252.804 80.2242C252.487 79.4093 252.512 78.8715 252.879 78.6107L254.566 77.293L254.354 77.9916L250.452 67.9836C249.399 65.2842 247.918 64.3069 246.008 65.0517C244.964 65.4589 244.057 66.1794 243.286 67.2132C242.531 68.2117 242.009 69.2807 241.72 70.4202L240.689 69.0179L241.262 68.7945C241.799 67.2358 242.569 65.8644 243.575 64.6803C244.605 63.4863 245.706 62.6609 246.878 62.2041C248.329 61.6381 249.597 61.7303 250.682 62.4808C251.767 63.2313 252.712 64.638 253.516 66.7007L257.359 76.5559L256.707 76.2381L259.817 75.8616C259.966 76.2436 260.029 76.5563 260.006 76.7997C260 77.0078 259.904 77.2506 259.718 77.5281L252.804 80.2242ZM263.937 76.0487C263.725 75.1999 263.819 74.6696 264.217 74.4579L266.296 73.1375L265.997 73.8034L262.353 59.1622L262.979 59.6401L260.523 59.7868C260.105 59.8063 259.79 59.3916 259.579 58.5428C260.547 58.1328 261.277 57.8386 261.768 57.6601C262.278 57.4484 262.706 57.2997 263.051 57.2139C263.741 57.0422 264.274 57.0925 264.652 57.3647C265.029 57.6368 265.314 58.1575 265.505 58.9267L265.872 60.3988L265.683 60.3191L266.041 60.2299C266.745 58.7589 267.671 57.5003 268.819 56.454C269.994 55.4012 271.191 54.7229 272.411 54.4192C273.896 54.0494 275.129 54.3059 276.109 55.1886C277.09 56.0713 277.847 57.5869 278.382 59.7353L280.977 70.1592L280.361 69.7211L283.225 69.6842C283.324 70.082 283.346 70.4003 283.293 70.6389C283.26 70.8444 283.134 71.0729 282.915 71.3246L275.952 73.0578C275.741 72.209 275.834 71.6787 276.232 71.467L278.073 70.375L277.774 71.041L275.179 60.6171C274.479 57.8055 273.135 56.6474 271.145 57.1425C270.403 57.3274 269.7 57.6714 269.036 58.1746C268.366 58.6512 267.779 59.234 267.274 59.9229C266.79 60.5787 266.411 61.2645 266.139 61.9802L266.269 61.145L269.24 73.0808L268.624 72.6426L271.488 72.6058C271.587 73.0036 271.61 73.3218 271.556 73.5604C271.523 73.7659 271.383 73.9978 271.138 74.2561L263.937 76.0487ZM287.689 70.1362C287.478 69.2874 287.571 68.7572 287.969 68.5454L289.81 67.4535L289.511 68.1194L286.916 57.6955C286.216 54.884 284.871 53.7258 282.882 54.221C281.795 54.4917 280.803 55.0906 279.907 56.0178C279.031 56.9119 278.377 57.9056 277.945 58.999L277.101 57.4767L277.698 57.3282C278.429 55.8506 279.368 54.5886 280.516 53.5424C281.691 52.4895 282.888 51.8112 284.108 51.5075C285.62 51.1312 286.866 51.3844 287.846 52.267C288.826 53.1497 289.584 54.6653 290.119 56.8137L292.674 67.0785L292.068 66.6801L295.2 66.7032C295.299 67.1011 295.322 67.4193 295.269 67.6579C295.235 67.8634 295.109 68.0919 294.89 68.3436L287.689 70.1362ZM307.277 66.6966C305.627 66.9359 304.127 66.7805 302.777 66.2305C301.45 65.6496 300.352 64.7454 299.483 63.518C298.615 62.2906 298.055 60.8112 297.804 59.08C297.518 57.1053 297.667 55.2747 298.251 53.5881C298.862 51.8976 299.791 50.4925 301.037 49.3727C302.283 48.253 303.718 47.5755 305.341 47.3402C306.747 47.1362 308.012 47.2844 309.134 47.7845C310.279 48.2538 311.231 49.0133 311.991 50.0631C312.751 51.113 313.239 52.3818 313.455 53.8695C313.529 54.3835 313.485 54.7489 313.323 54.9657C313.158 55.1555 312.953 55.268 312.71 55.3033L299.928 57.1564L299.746 55.8985L310.741 54.0144L310.36 54.5254C310.225 53.2191 309.9 52.1201 309.384 51.2282C308.896 50.3324 308.276 49.6766 307.525 49.2607C306.797 48.8138 305.987 48.655 305.094 48.7845C303.607 49.0002 302.489 49.8664 301.743 51.3833C300.996 52.9001 300.805 54.9164 301.17 57.4321C301.405 59.0551 301.841 60.4419 302.477 61.5925C303.137 62.7122 303.975 63.5434 304.993 64.0864C306.011 64.6293 307.169 64.8066 308.467 64.6184C309.549 64.4615 310.551 64.04 311.474 63.3539C312.392 62.6407 313.171 61.7268 313.811 60.6122L314.485 61.5501C314.035 62.444 313.435 63.2628 312.687 64.0066C311.935 64.7232 311.095 65.3145 310.169 65.7803C309.269 66.2421 308.305 66.5476 307.277 66.6966ZM319.788 64.4922C319.724 63.6747 319.903 63.167 320.326 62.969L322.594 62.0083L322.2 62.7386L321.001 47.575L321.54 48.1493L319.092 47.8904C318.897 47.8509 318.737 47.7265 318.611 47.5172C318.482 47.2806 318.401 46.9443 318.366 46.5083C319.416 46.2608 320.198 46.0893 320.711 45.9939C321.222 45.8712 321.655 45.7958 322.009 45.7678C322.663 45.7161 323.169 45.8681 323.526 46.2237C323.881 46.5521 324.092 47.1386 324.159 47.9833L324.294 49.6999L324.03 49.4741L324.438 49.4418C325.073 48.1029 325.89 46.9964 326.89 46.1222C327.918 45.2458 328.922 44.7688 329.903 44.6913C330.938 44.6094 331.692 44.7828 332.165 45.2116C332.635 45.6131 332.898 46.1544 332.951 46.8356C332.992 47.3533 332.864 47.8159 332.568 48.2232C332.298 48.6284 331.918 48.8504 331.428 48.8891C330.99 48.2108 330.557 47.7652 330.129 47.5523C329.701 47.3394 329.242 47.2523 328.751 47.2911C327.988 47.3515 327.211 47.7556 326.421 48.5036C325.63 49.2516 324.931 50.1294 324.326 51.1369L324.55 50.3377L325.507 62.436L324.877 61.7455L328.494 62.2409C328.526 62.6497 328.497 62.9673 328.405 63.1939C328.34 63.4184 328.166 63.6378 327.881 63.8523L319.788 64.4922ZM355.963 63.639C354.269 63.599 352.788 63.1949 351.521 62.4267C350.282 61.6592 349.336 60.5979 348.685 59.2428C348.033 57.8877 347.729 56.2947 347.772 54.4639C347.821 52.4145 348.26 50.6203 349.089 49.0815C349.946 47.516 351.095 46.3128 352.537 45.472C353.979 44.6038 355.602 44.191 357.406 44.2337C358.635 44.2627 359.751 44.4942 360.752 44.9279C361.754 45.3344 362.534 45.886 363.092 46.5827C363.677 47.28 363.96 48.0386 363.94 48.8584C363.927 49.4049 363.753 49.8382 363.417 50.1584C363.11 50.4519 362.683 50.5921 362.136 50.5792C361.89 50.5734 361.659 50.5406 361.441 50.4808C361.225 50.3936 361.008 50.2928 360.792 50.1784C360.826 48.7301 360.511 47.6153 359.846 46.8341C359.208 46.0534 358.247 45.648 356.963 45.6176C355.214 45.5763 353.859 46.2414 352.897 47.6131C351.935 48.9574 351.424 50.9139 351.363 53.4825C351.3 56.1604 351.758 58.2081 352.736 59.6256C353.742 61.0164 355.256 61.7358 357.278 61.7836C358.371 61.8094 359.428 61.6157 360.45 61.2023C361.499 60.7623 362.457 60.1288 363.324 59.3017L363.834 60.2981C363.243 60.995 362.518 61.6067 361.658 62.1331C360.826 62.633 359.915 63.0079 358.925 63.2579C357.961 63.5359 356.974 63.6629 355.963 63.639ZM375.817 64.78C373.287 64.5341 371.364 63.5508 370.048 61.8302C368.732 60.1095 368.203 57.9297 368.459 55.2908C368.657 53.2504 369.256 51.4687 370.256 49.9455C371.282 48.425 372.589 47.275 374.175 46.4954C375.761 45.7159 377.52 45.4199 379.451 45.6076C381.138 45.7716 382.558 46.2803 383.711 47.1338C384.866 47.9601 385.721 49.0592 386.274 50.4312C386.827 51.8031 387.018 53.3732 386.846 55.1416C386.645 57.2092 386.045 59.0045 385.045 60.5277C384.049 62.0236 382.744 63.1601 381.13 63.937C379.547 64.6893 377.776 64.9703 375.817 64.78ZM376.727 63.4679C378.55 63.645 380.022 63.0466 381.144 61.6727C382.294 60.3015 382.997 58.2964 383.253 55.6575C383.51 53.0186 383.244 50.9469 382.457 49.4423C381.669 47.9377 380.391 47.0995 378.623 46.9277C376.8 46.7506 375.314 47.3476 374.165 48.7189C373.018 50.0629 372.314 52.0816 372.052 54.7749C371.796 57.4138 372.061 59.4855 372.849 60.9901C373.666 62.4701 374.959 63.296 376.727 63.4679ZM390.24 65.7692C390.314 65.3104 390.422 64.9817 390.565 64.7831C390.707 64.5845 390.893 64.462 391.122 64.4157L393.674 64.0358L393.138 64.5312L397.362 38.1766L397.751 38.8617L395.312 38.0141C394.92 37.8682 394.793 37.3635 394.932 36.4998C395.844 36.5077 396.617 36.5208 397.251 36.5394C397.885 36.5579 398.485 36.6126 399.052 36.7034C400.293 36.9024 400.788 37.7846 400.537 39.3499L396.43 64.9758L396.029 64.3717L399.184 65.6665C399.12 66.0713 399.016 66.373 398.873 66.5716C398.762 66.7476 398.543 66.9062 398.216 67.0476L390.24 65.7692ZM403.576 67.9743C403.671 67.5195 403.795 67.1963 403.947 67.0046C404.099 66.813 404.29 66.6994 404.521 66.6639L407.088 66.4051L406.529 66.8746L411.994 40.749L412.35 41.4517L409.954 40.4898C409.569 40.3256 409.466 39.8154 409.646 38.9593C410.556 39.0102 411.328 39.0599 411.96 39.1084C412.592 39.1568 413.189 39.2398 413.751 39.3573C414.982 39.6148 415.435 40.5193 415.11 42.0711L409.796 67.4743L409.424 66.8518L412.515 68.2943C412.431 68.6956 412.313 68.9921 412.162 69.1837C412.042 69.3542 411.816 69.5023 411.482 69.6281L403.576 67.9743ZM424.221 73.3594C422.612 72.9219 421.298 72.1821 420.278 71.14C419.292 70.0787 418.645 68.8122 418.337 67.3405C418.029 65.8687 418.105 64.2889 418.564 62.6008C419.087 60.6754 419.953 59.0555 421.16 57.7409C422.394 56.4335 423.805 55.5143 425.394 54.9833C426.983 54.4524 428.569 54.4021 430.151 54.8325C431.523 55.2055 432.624 55.8448 433.454 56.7504C434.318 57.6367 434.889 58.7127 435.168 59.9783C435.447 61.2439 435.389 62.602 434.995 64.0526C434.858 64.5537 434.673 64.8715 434.438 65.0059C434.21 65.114 433.978 65.1357 433.74 65.0712L421.278 61.6819L421.612 60.4555L432.448 63.1051L431.894 63.422C432.292 62.1703 432.431 61.0327 432.313 60.0091C432.221 58.9927 431.913 58.1443 431.39 57.4638C430.901 56.7642 430.221 56.296 429.35 56.0593C427.9 55.6648 426.53 56.0146 425.241 57.1087C423.952 58.2027 422.974 59.9762 422.307 62.4292C421.877 64.0117 421.724 65.4574 421.85 66.7662C422.009 68.0558 422.447 69.1523 423.165 70.0555C423.882 70.9588 424.874 71.5826 426.14 71.9269C427.195 72.2138 428.282 72.2262 429.401 71.9641C430.528 71.6756 431.606 71.1474 432.637 70.3796L432.882 71.5085C432.113 72.1491 431.237 72.6616 430.254 73.0459C429.279 73.4038 428.273 73.6118 427.238 73.6701C426.229 73.7356 425.223 73.632 424.221 73.3594ZM443.688 79.3414C442.088 78.7818 440.804 77.9416 439.835 76.8208C438.892 75.709 438.319 74.4082 438.116 72.9184C437.914 71.4285 438.115 69.8193 438.719 68.0907C439.396 66.1557 440.366 64.5837 441.629 63.3749C442.926 62.1492 444.39 61.3583 446.021 61.002C447.66 60.6199 449.331 60.7268 451.034 61.3225C452.195 61.7286 453.185 62.2922 454.004 63.0131C454.833 63.7083 455.405 64.4731 455.721 65.3077C456.063 66.1512 456.099 66.96 455.828 67.734C455.647 68.25 455.348 68.6087 454.93 68.81C454.547 68.9945 454.097 68.9965 453.581 68.816C453.349 68.7348 453.139 68.6322 452.951 68.5084C452.771 68.3588 452.597 68.1963 452.426 68.0209C452.905 66.6535 452.948 65.4958 452.555 64.5477C452.189 63.6087 451.399 62.9271 450.187 62.5029C448.536 61.9252 447.041 62.1409 445.704 63.1498C444.375 64.1329 443.287 65.8371 442.438 68.2623C441.554 70.7907 441.359 72.8798 441.853 74.5296C442.382 76.1626 443.601 77.313 445.51 77.9809C446.542 78.342 447.608 78.483 448.707 78.4042C449.841 78.3086 450.948 78.0008 452.027 77.4807L452.205 78.5855C451.429 79.0668 450.55 79.4255 449.57 79.6618C448.625 79.8812 447.642 79.9574 446.623 79.8905C445.621 79.8584 444.643 79.6754 443.688 79.3414ZM460.699 85.7842C459.491 85.2742 458.743 84.514 458.458 83.5034C458.197 82.5035 458.391 81.2355 459.039 79.6993L465.861 63.5315C466.172 63.4256 466.524 63.3662 466.915 63.3532C467.342 63.3257 467.771 63.3287 468.202 63.3621C468.658 63.4062 469.067 63.4901 469.43 63.6136L462.29 80.537C461.876 81.5191 461.712 82.2953 461.797 82.8655C461.919 83.4211 462.345 83.853 463.075 84.1611C463.654 84.4055 464.324 84.5399 465.085 84.5644C465.872 84.5994 466.696 84.4727 467.56 84.1843L467.69 85.3518C467.29 85.5982 466.692 85.8205 465.896 86.0188C465.125 86.2277 464.281 86.3311 463.362 86.3291C462.443 86.3271 461.556 86.1455 460.699 85.7842ZM471.433 72.157L461.124 67.5851C461.273 67.2325 461.444 66.9337 461.636 66.6885C461.864 66.4288 462.093 66.2732 462.323 66.2217L473.075 70.2688C473.072 70.416 473.057 70.5578 473.029 70.6944C473.012 70.8057 472.976 70.9244 472.923 71.0503C472.753 71.4532 472.534 71.7613 472.266 71.9746C472.009 72.1627 471.731 72.2235 471.433 72.157ZM469.46 89.0404C469.84 88.2526 470.251 87.9045 470.692 87.996L473.246 88.3634L472.591 88.6844L479.218 74.9475L479.394 75.7152L477.301 74.2044C476.955 73.9771 476.978 73.4572 477.37 72.6448C478.267 72.9255 478.998 73.1719 479.563 73.3839C480.165 73.5833 480.736 73.8136 481.278 74.0749C482.41 74.6212 482.638 75.596 481.961 76.9992L475.654 90.0714L475.443 89.3776L478.059 91.5044C477.88 91.8737 477.695 92.133 477.501 92.2825C477.344 92.4192 477.089 92.5084 476.735 92.55L469.46 89.0404ZM483.079 70.4369C482.488 70.1519 482.11 69.7721 481.944 69.2977C481.79 68.7986 481.844 68.2783 482.105 67.7367C482.367 67.1951 482.765 66.8411 483.301 66.6746C483.861 66.5199 484.375 66.5555 484.842 66.7811C485.433 67.0662 485.806 67.4582 485.959 67.9573C486.15 68.4436 486.108 68.9699 485.835 69.5361C485.586 70.053 485.181 70.3888 484.621 70.5435C484.085 70.71 483.571 70.6744 483.079 70.4369ZM488.165 99.2586C485.95 98.0118 484.588 96.3356 484.079 94.2301C483.571 92.1246 483.966 89.9166 485.267 87.6061C486.272 85.8197 487.54 84.4316 489.069 83.4419C490.623 82.4655 492.282 81.9411 494.048 81.8687C495.814 81.7962 497.542 82.2359 499.234 83.1878C500.71 84.0191 501.804 85.0579 502.514 86.3043C503.237 87.527 503.575 88.8775 503.527 90.356C503.478 91.8345 503.019 93.3479 502.147 94.8962C501.128 96.7064 499.854 98.1064 498.325 99.0962C496.809 100.062 495.156 100.575 493.366 100.634C491.614 100.682 489.88 100.224 488.165 99.2586ZM489.528 98.426C491.123 99.3242 492.712 99.3716 494.294 98.568C495.899 97.7778 497.352 96.2275 498.652 93.917C499.953 91.6065 500.547 89.604 500.434 87.9096C500.321 86.2151 499.491 84.9322 497.943 84.0607C496.347 83.1625 494.746 83.1084 493.141 83.8986C491.549 84.665 490.089 86.2272 488.762 88.5853C487.461 90.8958 486.868 92.8983 486.98 94.5927C487.13 96.2768 487.979 97.5545 489.528 98.426ZM500.985 106.053C501.476 105.329 501.933 105.044 502.356 105.199L504.728 105.865L503.964 106.189L512.495 93.5952L512.557 94.3803L510.807 92.6502C510.514 92.3524 510.612 91.8414 511.103 91.1172C512.055 91.564 512.761 91.9103 513.222 92.1563C513.72 92.395 514.117 92.614 514.411 92.8133C514.999 93.2119 515.318 93.6426 515.368 94.1054C515.418 94.5682 515.22 95.1277 514.776 95.784L513.925 97.04L513.79 96.8002L514.164 97.0531C515.774 96.6253 517.363 96.4968 518.931 96.6676C520.522 96.8537 521.872 97.3223 522.98 98.0735C525.605 99.8517 525.684 102.563 523.216 106.206L517.283 114.964L517.175 114.247L519.25 116.593C519.02 116.933 518.81 117.17 518.619 117.305C518.444 117.417 518.19 117.476 517.856 117.481L511.712 113.319C512.203 112.595 512.66 112.31 513.083 112.465L515.091 113.083L514.361 113.43L520.454 104.434C522.079 102.036 521.987 100.223 520.176 98.9966C519.497 98.5367 518.726 98.2126 517.863 98.0243C517.039 97.8287 516.19 97.7655 515.318 97.8349C514.461 97.8816 513.663 98.035 512.926 98.2949L513.635 97.8339L506.736 108.017L506.651 107.266L508.591 109.373C508.361 109.712 508.14 109.942 507.927 110.062C507.752 110.174 507.486 110.225 507.13 110.215L500.985 106.053ZM534.889 131.479C533.374 130.18 532.406 128.79 531.983 127.31C531.598 125.828 531.798 124.63 532.581 123.717C532.99 123.24 533.418 122.995 533.862 122.98C534.307 122.966 534.716 123.118 535.089 123.439C535.566 123.848 535.806 124.324 535.809 124.867C534.865 125.966 534.402 127.009 534.419 127.997C534.437 128.984 534.943 129.905 535.939 130.759C536.851 131.543 537.763 131.929 538.673 131.917C539.583 131.906 540.394 131.486 541.106 130.656C541.658 130.013 541.937 129.352 541.943 128.673C541.95 127.994 541.79 127.299 541.464 126.587C541.139 125.875 540.763 125.138 540.336 124.376C539.886 123.558 539.482 122.706 539.124 121.823C538.766 120.939 538.602 120.06 538.632 119.185C538.68 118.29 539.042 117.448 539.719 116.66C540.698 115.519 541.946 114.988 543.464 115.066C544.982 115.144 546.508 115.842 548.043 117.159C548.914 117.907 549.605 118.697 550.114 119.531C550.623 120.364 550.908 121.166 550.966 121.937C551.043 122.687 550.859 123.321 550.414 123.84C550.076 124.234 549.684 124.438 549.239 124.453C548.812 124.447 548.412 124.283 548.039 123.963C547.707 123.678 547.494 123.297 547.399 122.82C548.129 121.969 548.451 121.111 548.366 120.245C548.28 119.38 547.823 118.591 546.993 117.879C546.226 117.22 545.454 116.882 544.677 116.863C543.9 116.845 543.236 117.157 542.684 117.8C542.221 118.34 541.984 118.91 541.971 119.512C541.998 120.111 542.162 120.738 542.464 121.393C542.766 122.049 543.099 122.731 543.463 123.44C543.958 124.332 544.406 125.258 544.809 126.216C545.232 127.191 545.442 128.164 545.439 129.133C545.453 130.082 545.068 131.013 544.285 131.925C543.519 132.817 542.613 133.39 541.567 133.645C540.538 133.878 539.438 133.817 538.267 133.46C537.114 133.083 535.988 132.423 534.889 131.479ZM548.768 144.207C547.663 143.109 547.167 141.902 547.279 140.588C547.41 139.254 548.256 137.802 549.816 136.231L557.331 128.67L557.334 129.54L555.849 127.428C555.732 127.274 555.712 127.081 555.789 126.849C555.885 126.597 556.097 126.307 556.424 125.977C557.257 126.612 557.877 127.094 558.284 127.421C558.729 127.748 559.069 128.027 559.301 128.258C559.825 128.779 560.087 129.29 560.089 129.793C560.11 130.314 559.85 130.847 559.311 131.39L552.23 138.514C551.189 139.561 550.622 140.539 550.528 141.448C550.473 142.356 550.853 143.215 551.667 144.024C552.19 144.545 552.762 144.939 553.381 145.208C554.02 145.496 554.658 145.668 555.296 145.724C555.973 145.78 556.62 145.749 557.238 145.631L556.543 145.923L565.561 136.85L565.563 137.72L564.049 135.579C563.933 135.425 563.913 135.231 563.99 134.999C564.105 134.767 564.326 134.486 564.654 134.156C565.487 134.792 566.107 135.273 566.514 135.6C566.959 135.927 567.289 136.197 567.502 136.409C568.045 136.948 568.317 137.469 568.318 137.972C568.32 138.474 568.051 138.997 567.511 139.54L558.292 148.817C557.964 149.146 557.781 149.466 557.744 149.775C557.725 150.104 557.842 150.393 558.094 150.644C558.308 150.856 558.579 151.029 558.908 151.163C559.275 151.297 559.633 151.383 559.981 151.421L559.433 152.437C558.738 152.478 558.042 152.364 557.345 152.096C556.648 151.827 556.077 151.471 555.631 151.028C555.03 150.431 554.748 149.765 554.784 149.03C554.84 148.276 555.234 147.531 555.966 146.794L555.821 146.65C552.98 146.871 550.629 146.057 548.768 144.207ZM561.224 156.095C561.903 155.543 562.422 155.402 562.783 155.673L564.862 156.995L564.132 157.007L575.84 147.49L575.673 148.26L574.497 146.098C574.302 145.728 574.544 145.268 575.223 144.716C576.005 145.418 576.581 145.954 576.951 146.322C577.36 146.695 577.676 147.019 577.9 147.295C578.348 147.846 578.529 148.351 578.443 148.808C578.357 149.266 578.007 149.744 577.392 150.244L576.214 151.201L576.206 150.996L576.439 151.283C578.07 151.296 579.603 151.599 581.037 152.194C582.489 152.811 583.612 153.607 584.405 154.582C585.371 155.77 585.662 156.995 585.279 158.257C584.896 159.52 583.846 160.849 582.128 162.246L573.792 169.021L573.927 168.277L575.177 170.855C574.858 171.113 574.58 171.269 574.341 171.322C574.141 171.379 573.881 171.362 573.56 171.271L569.034 165.703C569.713 165.151 570.232 165.011 570.593 165.281L572.363 166.484L571.634 166.496L579.969 159.72C582.217 157.893 582.695 156.184 581.402 154.593C580.919 153.999 580.309 153.509 579.572 153.122C578.856 152.717 578.079 152.433 577.241 152.269C576.441 152.109 575.66 152.057 574.896 152.114L575.707 151.877L566.163 159.636L566.298 158.892L567.548 161.469C567.229 161.728 566.951 161.884 566.712 161.937C566.512 161.994 566.243 161.966 565.905 161.853L561.224 156.095ZM576.663 175.088C577.342 174.537 577.861 174.396 578.222 174.666L579.992 175.869L579.263 175.881L587.598 169.106C589.846 167.278 590.324 165.569 589.031 163.978C588.324 163.109 587.361 162.465 586.141 162.048C584.959 161.634 583.782 161.464 582.609 161.538L583.629 160.127L584.017 160.604C585.665 160.639 587.206 160.953 588.641 161.548C590.093 162.164 591.215 162.96 592.008 163.936C592.991 165.145 593.291 166.381 592.908 167.643C592.525 168.905 591.475 170.235 589.757 171.631L581.548 178.303L581.651 177.585L582.961 180.431C582.643 180.69 582.364 180.845 582.126 180.898C581.925 180.956 581.665 180.938 581.344 180.847L576.663 175.088ZM584.058 184.43C584.801 183.968 585.334 183.894 585.658 184.207L587.554 185.78L586.828 185.7L599.64 177.731L599.378 178.474L598.483 176.181C598.336 175.79 598.634 175.363 599.377 174.901C600.064 175.696 600.569 176.3 600.89 176.712C601.248 177.133 601.521 177.494 601.709 177.796C602.084 178.4 602.2 178.923 602.057 179.366C601.914 179.809 601.506 180.24 600.833 180.658L599.545 181.46L599.563 181.255L599.758 181.569C601.374 181.787 602.857 182.281 604.205 183.051C605.568 183.845 606.582 184.776 607.246 185.844C608.054 187.143 608.189 188.395 607.651 189.6C607.112 190.804 605.903 191.99 604.023 193.16L594.902 198.834L595.129 198.113L596.045 200.827C595.696 201.043 595.401 201.163 595.157 201.185C594.952 201.217 594.695 201.167 594.388 201.036L590.599 194.944C591.341 194.482 591.875 194.407 592.198 194.721L593.803 196.137L593.078 196.057L602.199 190.383C604.659 188.853 605.348 187.217 604.265 185.477C603.861 184.827 603.317 184.264 602.635 183.787C601.975 183.296 601.24 182.916 600.429 182.648C599.656 182.388 598.887 182.239 598.123 182.2L598.957 182.067L588.513 188.564L588.741 187.843L589.656 190.557C589.308 190.773 589.012 190.893 588.769 190.915C588.563 190.947 588.299 190.885 587.978 190.731L584.058 184.43ZM596.987 205.214C597.73 204.752 598.263 204.678 598.587 204.991L600.192 206.407L599.466 206.327L608.588 200.653C611.048 199.123 611.736 197.487 610.654 195.747C610.062 194.795 609.187 194.036 608.029 193.468C606.909 192.91 605.762 192.593 604.589 192.518L605.778 191.247L606.103 191.769C607.734 192.01 609.223 192.516 610.572 193.287C611.935 194.081 612.948 195.011 613.613 196.079C614.436 197.402 614.578 198.666 614.039 199.87C613.501 201.074 612.291 202.261 610.411 203.43L601.429 209.017L601.622 208.318L602.563 211.306C602.215 211.522 601.919 211.642 601.676 211.665C601.47 211.696 601.214 211.646 600.907 211.515L596.987 205.214ZM606.29 222.8C605.554 221.304 605.24 219.829 605.348 218.375C605.492 216.933 606.014 215.61 606.914 214.406C607.815 213.202 609.05 212.214 610.62 211.442C612.41 210.562 614.198 210.14 615.982 210.176C617.779 210.237 619.402 210.688 620.851 211.529C622.3 212.37 623.386 213.526 624.11 214.998C624.737 216.273 624.985 217.522 624.855 218.743C624.761 219.977 624.332 221.117 623.567 222.164C622.802 223.21 621.745 224.064 620.396 224.728C619.93 224.957 619.569 225.028 619.313 224.941C619.081 224.841 618.911 224.681 618.802 224.46L613.104 212.871L614.244 212.31L619.423 222.191L618.819 221.985C620.02 221.455 620.966 220.808 621.656 220.042C622.357 219.301 622.79 218.509 622.955 217.667C623.156 216.837 623.058 216.018 622.66 215.208C621.996 213.859 620.828 213.063 619.155 212.819C617.482 212.576 615.505 213.015 613.224 214.137C611.752 214.86 610.567 215.702 609.668 216.662C608.806 217.634 608.273 218.688 608.07 219.823C607.867 220.959 608.055 222.115 608.634 223.292C609.116 224.274 609.826 225.097 610.762 225.764C611.724 226.418 612.833 226.878 614.09 227.143L613.406 228.073C612.417 227.92 611.453 227.602 610.515 227.119C609.602 226.624 608.78 226.007 608.052 225.269C607.336 224.555 606.748 223.732 606.29 222.8ZM612.225 234.001C612.984 233.69 613.522 233.705 613.84 234.047L615.449 235.913L614.632 235.76L628.702 229.98L628.32 230.669L627.818 228.26C627.796 228.062 627.865 227.871 628.026 227.687C628.212 227.492 628.507 227.312 628.912 227.145C629.469 228.069 629.871 228.761 630.119 229.22C630.392 229.67 630.596 230.059 630.731 230.387C630.981 230.994 630.991 231.522 630.761 231.971C630.557 232.409 630.063 232.789 629.28 233.111L627.687 233.766L627.821 233.445L627.977 233.824C629.445 234.018 630.749 234.458 631.887 235.143C633.036 235.853 633.797 236.663 634.171 237.573C634.566 238.534 634.632 239.305 634.368 239.886C634.13 240.457 633.694 240.872 633.062 241.131C632.582 241.329 632.103 241.348 631.624 241.191C631.156 241.058 630.828 240.764 630.641 240.309C631.153 239.685 631.445 239.136 631.517 238.664C631.588 238.191 631.531 237.727 631.344 237.272C631.053 236.564 630.43 235.948 629.476 235.424C628.522 234.9 627.473 234.504 626.328 234.235L627.158 234.205L615.932 238.817L616.397 238.005L617.032 241.601C616.653 241.756 616.341 241.825 616.097 241.807C615.864 241.815 615.602 241.715 615.31 241.51L612.225 234.001ZM624.12 268.151C623.643 266.525 623.577 264.992 623.923 263.551C624.277 262.137 625 260.913 626.092 259.88C627.185 258.847 628.609 258.072 630.366 257.556C632.333 256.978 634.176 256.85 635.894 257.171C637.646 257.511 639.142 258.24 640.382 259.357C641.648 260.467 642.535 261.887 643.044 263.618C643.391 264.798 643.51 265.931 643.401 267.017C643.319 268.095 643.031 269.006 642.537 269.749C642.051 270.518 641.415 271.019 640.628 271.25C640.104 271.404 639.638 271.37 639.231 271.148C638.857 270.944 638.594 270.58 638.44 270.055C638.37 269.819 638.331 269.589 638.322 269.363C638.339 269.13 638.369 268.894 638.412 268.653C639.802 268.245 640.768 267.605 641.31 266.734C641.859 265.889 641.953 264.85 641.591 263.617C641.098 261.939 640.052 260.85 638.452 260.351C636.879 259.845 634.86 259.954 632.395 260.678C629.824 261.433 628.013 262.492 626.961 263.855C625.942 265.237 625.718 266.898 626.288 268.839C626.596 269.888 627.103 270.836 627.807 271.683C628.546 272.549 629.441 273.268 630.493 273.843L629.699 274.631C628.855 274.281 628.052 273.776 627.289 273.117C626.559 272.477 625.925 271.723 625.385 270.856C624.827 270.023 624.405 269.121 624.12 268.151ZM629.072 287.405C628.537 284.92 628.889 282.789 630.129 281.013C631.368 279.236 633.284 278.069 635.876 277.512C637.88 277.08 639.759 277.109 641.514 277.598C643.275 278.114 644.768 279.009 645.992 280.283C647.217 281.558 648.034 283.143 648.442 285.041C648.798 286.697 648.745 288.205 648.283 289.562C647.847 290.914 647.059 292.062 645.92 293.006C644.781 293.95 643.343 294.609 641.606 294.983C639.576 295.42 637.683 295.394 635.928 294.905C634.2 294.41 632.721 293.512 631.49 292.211C630.292 290.931 629.486 289.329 629.072 287.405ZM630.599 287.874C630.984 289.664 632.001 290.885 633.651 291.536C635.307 292.215 637.431 292.275 640.023 291.717C642.615 291.159 644.508 290.277 645.702 289.069C646.896 287.862 647.306 286.389 646.932 284.652C646.547 282.862 645.527 281.628 643.871 280.95C642.242 280.266 640.105 280.208 637.459 280.778C634.867 281.335 632.974 282.218 631.78 283.425C630.619 284.654 630.225 286.137 630.599 287.874ZM632.511 301.44C632.971 301.371 633.317 301.374 633.549 301.45C633.782 301.526 633.955 301.665 634.068 301.869L635.205 304.186L634.57 303.826L660.964 299.856L660.429 300.434L660.497 297.853C660.517 297.436 660.96 297.162 661.825 297.032C662.094 297.904 662.316 298.644 662.49 299.254C662.665 299.863 662.795 300.452 662.88 301.019C663.067 302.263 662.377 303.002 660.809 303.238L635.145 307.098L635.599 306.532L635.322 309.932C634.917 309.993 634.598 309.985 634.365 309.91C634.164 309.857 633.946 309.696 633.712 309.427L632.511 301.44ZM634.454 314.811C634.916 314.764 635.262 314.784 635.491 314.871C635.719 314.957 635.885 315.105 635.989 315.314L637.013 317.683L636.397 317.292L662.95 314.587L662.388 315.139L662.579 312.564C662.619 312.148 663.074 311.895 663.945 311.807C664.172 312.69 664.358 313.441 664.504 314.058C664.649 314.675 664.751 315.269 664.809 315.84C664.936 317.091 664.211 317.797 662.634 317.957L636.815 320.588L637.295 320.044L636.857 323.427C636.449 323.469 636.131 323.446 635.902 323.36C635.703 323.297 635.494 323.126 635.273 322.847L634.454 314.811ZM635.586 336.131C635.514 334.465 635.819 332.988 636.502 331.7C637.214 330.438 638.224 329.437 639.532 328.697C640.841 327.956 642.369 327.548 644.117 327.472C646.11 327.386 647.917 327.719 649.536 328.469C651.156 329.247 652.461 330.313 653.45 331.665C654.438 333.018 654.968 334.513 655.039 336.152C655.1 337.572 654.826 338.815 654.215 339.881C653.633 340.973 652.782 341.844 651.661 342.495C650.54 343.145 649.228 343.503 647.726 343.568C647.208 343.59 646.848 343.51 646.649 343.327C646.477 343.143 646.386 342.928 646.375 342.682L645.817 329.779L647.087 329.724L647.855 340.853L647.385 340.422C648.698 340.42 649.825 340.207 650.764 339.784C651.704 339.387 652.419 338.837 652.908 338.132C653.426 337.453 653.666 336.663 653.627 335.761C653.562 334.259 652.812 333.061 651.378 332.165C649.944 331.27 647.957 330.877 645.418 330.987C643.779 331.057 642.356 331.352 641.147 331.869C639.967 332.412 639.055 333.163 638.413 334.121C637.77 335.079 637.477 336.213 637.534 337.524C637.581 338.617 637.9 339.656 638.489 340.643C639.107 341.628 639.937 342.495 640.982 343.244L639.981 343.82C639.137 343.282 638.383 342.604 637.718 341.784C637.081 340.964 636.577 340.069 636.207 339.1C635.838 338.158 635.631 337.169 635.586 336.131ZM635.822 356.524C635.865 354.83 636.272 353.35 637.043 352.085C637.813 350.847 638.877 349.904 640.233 349.255C641.589 348.607 643.183 348.306 645.014 348.353C647.063 348.406 648.856 348.848 650.393 349.681C651.957 350.541 653.158 351.693 653.996 353.137C654.861 354.581 655.27 356.204 655.224 358.008C655.192 359.237 654.958 360.352 654.523 361.353C654.114 362.354 653.561 363.133 652.863 363.689C652.164 364.273 651.405 364.554 650.585 364.533C650.039 364.519 649.606 364.343 649.287 364.007C648.994 363.699 648.854 363.271 648.868 362.725C648.875 362.479 648.908 362.247 648.968 362.03C649.056 361.814 649.157 361.598 649.272 361.382C650.72 361.419 651.836 361.106 652.618 360.443C653.4 359.807 653.808 358.846 653.841 357.562C653.886 355.813 653.224 354.457 651.854 353.492C650.512 352.527 648.556 352.012 645.988 351.946C643.31 351.877 641.261 352.33 639.842 353.306C638.449 354.309 637.726 355.821 637.674 357.843C637.646 358.936 637.838 359.994 638.249 361.016C638.687 362.066 639.318 363.026 640.143 363.895L639.146 364.402C638.45 363.81 637.84 363.084 637.315 362.223C636.817 361.389 636.444 360.478 636.196 359.487C635.921 358.523 635.796 357.535 635.822 356.524ZM634.903 374.719C635.016 373.412 635.51 372.467 636.383 371.884C637.255 371.329 638.521 371.123 640.182 371.267L657.664 372.782C657.861 373.046 658.026 373.362 658.158 373.731C658.316 374.128 658.445 374.537 658.546 374.958C658.644 375.405 658.69 375.821 658.685 376.204L640.385 374.618C639.323 374.526 638.534 374.608 638.018 374.865C637.527 375.152 637.247 375.69 637.178 376.48C637.124 377.106 637.202 377.785 637.413 378.517C637.622 379.276 637.996 380.021 638.536 380.754L637.466 381.238C637.108 380.932 636.712 380.431 636.279 379.735C635.843 379.067 635.485 378.295 635.204 377.42C634.923 376.545 634.823 375.645 634.903 374.719ZM651.172 380.738L652.35 369.523C652.731 369.556 653.068 369.627 653.36 369.734C653.678 369.872 653.896 370.041 654.016 370.244L653.474 381.72C653.333 381.763 653.193 381.792 653.055 381.807C652.943 381.825 652.82 381.828 652.684 381.816C652.248 381.778 651.887 381.665 651.602 381.475C651.344 381.288 651.2 381.043 651.172 380.738ZM634.501 384.056C635.367 384.175 635.825 384.459 635.873 384.907L636.31 387.451L635.803 386.925L650.912 389.004L650.236 389.408L651.029 386.951C651.139 386.552 651.641 386.414 652.535 386.537C652.544 387.477 652.534 388.248 652.506 388.851C652.502 389.485 652.459 390.1 652.377 390.696C652.205 391.941 651.348 392.458 649.804 392.246L635.426 390.267L636.021 389.853L634.802 392.996C634.396 392.94 634.092 392.843 633.89 392.705C633.712 392.597 633.548 392.382 633.4 392.058L634.501 384.056ZM656.392 391.29C656.481 390.64 656.726 390.163 657.127 389.859C657.554 389.559 658.066 389.451 658.662 389.532C659.257 389.614 659.717 389.885 660.04 390.343C660.36 390.828 660.484 391.328 660.413 391.843C660.324 392.493 660.065 392.968 659.638 393.267C659.234 393.598 658.72 393.721 658.097 393.635C657.529 393.557 657.085 393.275 656.765 392.789C656.442 392.331 656.318 391.831 656.392 391.29ZM630.533 404.995C631.038 402.503 632.214 400.692 634.061 399.56C635.908 398.429 638.131 398.127 640.729 398.653C642.738 399.061 644.449 399.84 645.861 400.991C647.268 402.168 648.277 403.586 648.889 405.244C649.501 406.902 649.615 408.682 649.229 410.584C648.892 412.245 648.24 413.605 647.272 414.664C646.332 415.728 645.15 416.465 643.729 416.874C642.307 417.283 640.726 417.311 638.984 416.958C636.948 416.545 635.224 415.763 633.812 414.612C632.427 413.467 631.431 412.052 630.824 410.367C630.239 408.714 630.142 406.924 630.533 404.995ZM631.744 406.035C631.38 407.83 631.824 409.356 633.075 410.614C634.321 411.898 636.243 412.804 638.841 413.331C641.44 413.858 643.528 413.807 645.105 413.179C646.683 412.55 647.648 411.365 648.001 409.624C648.365 407.829 647.924 406.29 646.679 405.005C645.46 403.726 643.525 402.818 640.872 402.28C638.274 401.753 636.186 401.804 634.608 402.432C633.052 403.093 632.097 404.294 631.744 406.035ZM628.011 419.283C628.851 419.527 629.262 419.874 629.245 420.325L629.341 422.786L628.798 422.159L643.405 426.403L642.677 426.704L643.785 424.507C643.978 424.136 644.495 424.073 645.334 424.317C645.202 425.36 645.09 426.139 644.997 426.653C644.923 427.201 644.837 427.645 644.738 427.986C644.539 428.669 644.228 429.105 643.803 429.294C643.378 429.484 642.784 429.468 642.023 429.247L640.566 428.824L640.753 428.622L640.627 429.055C641.53 430.455 642.141 431.928 642.46 433.473C642.772 435.043 642.742 436.472 642.368 437.758C641.483 440.803 638.928 441.711 634.702 440.483L624.544 437.531L625.193 437.208L623.598 439.904C623.205 439.789 622.914 439.662 622.727 439.522C622.566 439.39 622.432 439.166 622.325 438.85L624.396 431.724C625.236 431.968 625.647 432.316 625.63 432.766L625.66 434.867L625.105 434.279L635.538 437.311C638.321 438.119 640.017 437.473 640.627 435.374C640.856 434.586 640.927 433.753 640.841 432.874C640.774 432.029 640.573 431.202 640.238 430.393C639.93 429.592 639.539 428.881 639.065 428.259L639.722 428.792L627.91 425.359L628.599 425.047L627.191 427.541C626.797 427.427 626.511 427.286 626.331 427.12C626.17 426.988 626.04 426.751 625.94 426.409L628.011 419.283ZM614.203 459.336C614.975 457.496 616.001 456.148 617.28 455.291C618.573 454.471 619.774 454.293 620.883 454.759C621.462 455.002 621.827 455.333 621.978 455.752C622.128 456.171 622.108 456.607 621.917 457.061C621.674 457.64 621.294 458.015 620.779 458.183C619.443 457.623 618.308 457.502 617.374 457.821C616.439 458.14 615.718 458.904 615.21 460.114C614.744 461.223 614.657 462.209 614.946 463.072C615.236 463.935 615.885 464.578 616.893 465.001C617.675 465.329 618.389 465.392 619.037 465.19C619.686 464.988 620.298 464.622 620.876 464.094C621.454 463.566 622.04 462.982 622.634 462.342C623.275 461.663 623.962 461.017 624.693 460.405C625.424 459.793 626.211 459.367 627.052 459.128C627.919 458.899 628.831 458.986 629.789 459.388C631.175 459.97 632.064 460.995 632.455 462.464C632.846 463.932 632.65 465.599 631.867 467.464C631.423 468.523 630.882 469.422 630.245 470.163C629.608 470.903 628.932 471.419 628.216 471.712C627.526 472.015 626.865 472.034 626.235 471.77C625.757 471.568 625.442 471.259 625.292 470.84C625.167 470.431 625.2 470 625.39 469.547C625.559 469.144 625.857 468.824 626.282 468.587C627.315 469.021 628.231 469.065 629.029 468.718C629.826 468.371 630.437 467.694 630.86 466.686C631.252 465.753 631.337 464.914 631.116 464.169C630.896 463.425 630.394 462.888 629.613 462.56C628.958 462.285 628.342 462.234 627.766 462.407C627.204 462.615 626.657 462.964 626.126 463.452C625.595 463.941 625.048 464.467 624.485 465.031C623.787 465.776 623.043 466.486 622.255 467.163C621.456 467.866 620.595 468.364 619.671 468.658C618.773 468.962 617.769 468.882 616.66 468.416C615.576 467.961 614.753 467.274 614.19 466.356C613.652 465.448 613.373 464.383 613.353 463.159C613.359 461.946 613.642 460.671 614.203 459.336ZM606.342 476.415C607.051 475.028 608.049 474.187 609.335 473.893C610.646 473.612 612.286 473.975 614.258 474.983L623.748 479.837L622.921 480.105L624.48 478.047C624.591 477.889 624.769 477.811 625.014 477.813C625.283 477.828 625.624 477.941 626.037 478.153C625.686 479.14 625.417 479.877 625.229 480.364C625.053 480.888 624.89 481.296 624.741 481.588C624.405 482.245 623.998 482.651 623.52 482.806C623.029 482.984 622.443 482.9 621.762 482.551L612.818 477.977C611.504 477.305 610.4 477.063 609.506 477.25C608.624 477.475 607.921 478.098 607.399 479.12C607.063 479.777 606.861 480.441 606.794 481.113C606.714 481.809 606.745 482.469 606.886 483.094C607.039 483.756 607.265 484.363 607.566 484.916L607.076 484.343L618.465 490.167L617.638 490.435L619.215 488.341C619.327 488.183 619.505 488.105 619.749 488.107C620.005 488.146 620.34 488.271 620.754 488.483C620.403 489.47 620.133 490.207 619.946 490.694C619.77 491.218 619.613 491.614 619.476 491.882C619.128 492.563 618.715 492.981 618.236 493.136C617.758 493.29 617.178 493.193 616.497 492.845L604.853 486.89C604.439 486.678 604.079 486.601 603.773 486.66C603.454 486.742 603.214 486.942 603.052 487.258C602.915 487.526 602.833 487.837 602.805 488.191C602.79 488.582 602.817 488.949 602.887 489.292L601.752 489.08C601.501 488.43 601.398 487.732 601.441 486.987C601.485 486.242 601.649 485.589 601.936 485.029C602.321 484.275 602.87 483.803 603.581 483.614C604.316 483.437 605.145 483.586 606.07 484.059L606.164 483.876C605.087 481.238 605.147 478.751 606.342 476.415ZM598.812 491.904C599.544 492.382 599.837 492.834 599.689 493.26L599.064 495.643L598.83 494.951L611.464 503.199L610.68 503.275L612.38 501.496C612.673 501.198 613.185 501.287 613.918 501.766C613.487 502.725 613.153 503.437 612.915 503.902C612.685 504.404 612.473 504.804 612.278 505.102C611.89 505.697 611.465 506.023 611.003 506.081C610.541 506.138 609.978 505.95 609.314 505.517L608.044 504.688L608.237 504.618L608.035 504.927C608.52 506.484 608.698 508.036 608.569 509.584C608.425 511.155 608.009 512.467 607.322 513.519C606.485 514.801 605.407 515.452 604.088 515.472C602.769 515.493 601.183 514.898 599.329 513.687L590.334 507.815L591.084 507.717L589.01 509.693C588.667 509.469 588.433 509.251 588.31 509.04C588.195 508.867 588.132 508.613 588.121 508.28L592.043 502.272C592.776 502.75 593.068 503.202 592.921 503.628L592.315 505.681L592.081 504.989L601.076 510.862C603.502 512.446 605.275 512.379 606.396 510.663C606.814 510.022 607.095 509.291 607.239 508.471C607.405 507.666 607.439 506.839 607.34 505.991C607.249 505.181 607.06 504.421 606.772 503.711L607.245 504.411L596.946 497.687L597.695 497.589L595.622 499.565C595.279 499.341 595.045 499.123 594.922 498.912C594.807 498.739 594.751 498.474 594.755 498.118L598.812 491.904ZM585.431 512.4C586.164 512.878 586.456 513.33 586.309 513.756L585.703 515.809L585.469 515.117L594.464 520.989C596.89 522.573 598.663 522.507 599.784 520.79C600.396 519.852 600.715 518.738 600.741 517.449C600.774 516.198 600.577 515.025 600.15 513.93L601.804 514.471L601.468 514.986C601.938 516.566 602.108 518.13 601.979 519.678C601.835 521.248 601.419 522.56 600.732 523.613C599.88 524.917 598.795 525.58 597.476 525.6C596.157 525.62 594.571 525.025 592.717 523.815L583.859 518.032L584.575 517.912L582.264 520.027C581.92 519.802 581.687 519.585 581.564 519.374C581.448 519.2 581.385 518.947 581.375 518.614L585.431 512.4ZM578.804 522.269C579.47 522.836 579.702 523.322 579.501 523.726L578.576 526.009L578.433 525.293L589.909 535.088L589.122 535.063L591.035 533.516C591.364 533.257 591.861 533.412 592.526 533.98C591.976 534.876 591.554 535.54 591.258 535.97C590.966 536.439 590.704 536.809 590.474 537.079C590.012 537.62 589.549 537.889 589.083 537.887C588.618 537.885 588.084 537.627 587.481 537.112L586.327 536.128L586.527 536.083L586.287 536.363C586.569 537.97 586.548 539.532 586.222 541.051C585.878 542.59 585.298 543.838 584.482 544.794C583.488 545.959 582.336 546.467 581.025 546.318C579.715 546.17 578.217 545.377 576.533 543.94L568.362 536.966L569.118 536.964L566.81 538.659C566.498 538.393 566.294 538.147 566.199 537.922C566.106 537.736 566.076 537.476 566.108 537.144L570.766 531.687C571.431 532.255 571.664 532.74 571.463 533.144L570.6 535.102L570.456 534.387L578.627 541.36C580.831 543.241 582.598 543.402 583.929 541.843C584.425 541.261 584.798 540.572 585.045 539.777C585.313 539 585.452 538.184 585.462 537.33C585.475 536.515 585.385 535.737 585.19 534.996L585.57 535.751L576.214 527.766L576.97 527.765L574.661 529.459C574.35 529.193 574.146 528.948 574.051 528.722C573.958 528.536 573.937 528.266 573.987 527.913L578.804 522.269ZM562.914 540.887C563.579 541.454 563.812 541.94 563.611 542.344L562.748 544.302L562.604 543.587L570.775 550.56C572.979 552.441 574.746 552.602 576.077 551.043C576.804 550.19 577.263 549.126 577.453 547.851C577.646 546.614 577.601 545.426 577.317 544.285L578.888 545.033L578.489 545.501C578.753 547.128 578.722 548.701 578.396 550.219C578.053 551.759 577.473 553.007 576.657 553.963C575.645 555.148 574.484 555.666 573.173 555.518C571.863 555.37 570.365 554.577 568.681 553.139L560.635 546.272L561.36 546.244L558.798 548.046C558.486 547.78 558.282 547.534 558.187 547.309C558.095 547.123 558.065 546.863 558.097 546.531L562.914 540.887ZM548.703 555.41C549.905 554.254 551.215 553.507 552.633 553.167C554.05 552.866 555.469 552.961 556.89 553.453C558.311 553.945 559.627 554.821 560.84 556.082C562.223 557.52 563.169 559.095 563.677 560.806C564.165 562.536 564.229 564.219 563.868 565.855C563.508 567.491 562.736 568.877 561.554 570.014C560.53 570.999 559.416 571.616 558.213 571.863C557.009 572.149 555.792 572.086 554.563 571.676C553.334 571.265 552.198 570.518 551.156 569.434C550.796 569.06 550.618 568.738 550.624 568.467C550.648 568.216 550.749 568.006 550.926 567.835L560.235 558.883L561.116 559.799L553.277 567.736L553.289 567.098C554.159 568.082 555.064 568.786 556.003 569.21C556.922 569.653 557.808 569.825 558.66 569.726C559.512 569.665 560.263 569.322 560.913 568.697C561.997 567.655 562.4 566.3 562.123 564.632C561.846 562.964 560.827 561.214 559.065 559.382C557.928 558.2 556.766 557.327 555.578 556.762C554.39 556.236 553.224 556.049 552.081 556.201C550.937 556.353 549.893 556.883 548.947 557.793C548.159 558.551 547.59 559.477 547.24 560.572C546.909 561.687 546.808 562.883 546.938 564.162L545.843 563.793C545.689 562.804 545.699 561.789 545.874 560.748C546.068 559.728 546.405 558.758 546.887 557.84C547.349 556.94 547.955 556.13 548.703 555.41ZM539.824 564.486C540.352 565.113 540.502 565.63 540.273 566.037L538.988 568.139L538.884 567.316L548.687 578.946L547.915 578.793L550.055 577.579C550.237 577.497 550.44 577.505 550.664 577.602C550.906 577.719 551.168 577.945 551.45 578.28C550.741 579.092 550.205 579.687 549.843 580.063C549.499 580.46 549.191 580.774 548.919 581.003C548.418 581.425 547.918 581.596 547.421 581.515C546.941 581.455 546.428 581.101 545.882 580.453L544.772 579.136L545.119 579.166L544.805 579.43C545.069 580.888 545.049 582.263 544.745 583.556C544.419 584.867 543.881 585.84 543.128 586.474C542.334 587.143 541.62 587.441 540.986 587.368C540.37 587.315 539.842 587.028 539.401 586.505C539.067 586.108 538.901 585.658 538.905 585.154C538.889 584.667 539.068 584.265 539.445 583.948C540.195 584.245 540.807 584.355 541.279 584.279C541.751 584.203 542.175 584.007 542.551 583.689C543.136 583.196 543.532 582.415 543.74 581.347C543.947 580.278 544.004 579.158 543.91 577.986L544.193 578.767L536.371 569.487L537.286 569.682L534.056 571.385C533.792 571.071 533.631 570.796 533.574 570.558C533.496 570.338 533.51 570.058 533.616 569.718L539.824 564.486ZM510.915 586.226C512.317 585.273 513.756 584.741 515.234 584.63C516.688 584.534 518.075 584.847 519.393 585.571C520.711 586.295 521.884 587.414 522.913 588.929C524.066 590.624 524.752 592.339 524.972 594.073C525.184 595.846 524.949 597.493 524.265 599.015C523.596 600.56 522.516 601.839 521.024 602.853C520.006 603.544 518.964 604.005 517.897 604.234C516.846 604.486 515.89 604.491 515.032 604.248C514.15 604.021 513.479 603.568 513.018 602.89C512.711 602.438 512.601 601.984 512.688 601.528C512.767 601.11 513.033 600.748 513.485 600.441C513.689 600.302 513.896 600.194 514.108 600.117C514.335 600.062 514.57 600.018 514.812 599.985C515.626 601.184 516.531 601.907 517.526 602.156C518.499 602.421 519.517 602.192 520.579 601.47C522.026 600.487 522.742 599.157 522.727 597.482C522.728 595.829 522.006 593.94 520.562 591.815C519.057 589.6 517.494 588.2 515.874 587.615C514.247 587.068 512.597 587.363 510.924 588.5C510.019 589.115 509.272 589.887 508.681 590.817C508.083 591.785 507.672 592.858 507.447 594.035L506.453 593.52C506.529 592.61 506.763 591.691 507.157 590.762C507.543 589.872 508.067 589.037 508.727 588.258C509.349 587.472 510.079 586.794 510.915 586.226ZM494.103 596.83C496.305 595.561 498.442 595.244 500.512 595.881C502.582 596.517 504.28 597.984 505.604 600.281C506.627 602.057 507.175 603.855 507.246 605.676C507.294 607.51 506.898 609.205 506.06 610.761C505.221 612.316 503.962 613.579 502.28 614.548C500.812 615.394 499.361 615.805 497.927 615.78C496.506 615.778 495.172 615.38 493.925 614.584C492.678 613.789 491.611 612.622 490.723 611.082C489.686 609.282 489.132 607.472 489.06 605.652C489.003 603.855 489.405 602.172 490.267 600.603C491.119 599.071 492.398 597.813 494.103 596.83ZM494.124 598.427C492.537 599.342 491.686 600.684 491.571 602.454C491.432 604.238 492.024 606.278 493.348 608.575C494.672 610.873 496.092 612.405 497.607 613.172C499.122 613.939 500.649 613.879 502.188 612.992C503.775 612.078 504.637 610.729 504.777 608.945C504.929 607.185 504.33 605.132 502.979 602.788C501.655 600.491 500.235 598.959 498.72 598.191C497.195 597.461 495.663 597.54 494.124 598.427ZM481.791 604.4C481.997 604.816 482.1 605.147 482.1 605.391C482.099 605.636 482.019 605.843 481.859 606.014L480.002 607.805L480.151 607.09L492.012 631.001L491.298 630.669L493.775 629.943C494.179 629.835 494.575 630.172 494.964 630.955C494.217 631.479 493.58 631.917 493.053 632.27C492.526 632.622 492.006 632.926 491.491 633.181C490.365 633.74 489.45 633.309 488.745 631.889L477.212 608.64L477.89 608.898L474.568 609.676C474.386 609.309 474.295 609.003 474.296 608.759C474.285 608.551 474.371 608.295 474.555 607.99L481.791 604.4ZM469.653 610.347C469.84 610.772 469.927 611.107 469.914 611.351C469.902 611.596 469.812 611.799 469.645 611.962L467.705 613.663L467.887 612.956L478.604 637.401L477.906 637.036L480.416 636.428C480.824 636.339 481.204 636.694 481.555 637.495C480.784 637.983 480.127 638.39 479.584 638.718C479.041 639.045 478.507 639.324 477.981 639.555C476.829 640.06 475.935 639.586 475.299 638.134L464.879 614.365L465.543 614.656L462.189 615.275C462.024 614.9 461.948 614.59 461.96 614.346C461.959 614.138 462.057 613.886 462.256 613.59L469.653 610.347ZM449.717 617.947C451.281 617.369 452.781 617.209 454.216 617.465C455.635 617.757 456.897 618.413 458.002 619.432C459.107 620.452 459.963 621.782 460.569 623.423C461.261 625.294 461.496 627.116 461.277 628.887C461.031 630.668 460.416 632.236 459.43 633.591C458.445 634.945 457.183 635.907 455.644 636.475C454.311 636.968 453.044 637.086 451.842 636.831C450.624 636.611 449.534 636.066 448.572 635.198C447.61 634.33 446.869 633.19 446.348 631.78C446.168 631.293 446.135 630.926 446.248 630.681C446.37 630.46 446.547 630.308 446.778 630.223L458.893 625.747L459.333 626.939L448.972 631.073L449.238 630.494C449.642 631.743 450.189 632.75 450.879 633.515C451.544 634.289 452.287 634.802 453.108 635.052C453.913 635.338 454.738 635.324 455.584 635.011C456.994 634.49 457.907 633.41 458.321 631.771C458.735 630.132 458.502 628.12 457.621 625.736C457.053 624.197 456.337 622.932 455.475 621.939C454.597 620.981 453.603 620.343 452.495 620.024C451.386 619.705 450.217 619.773 448.986 620.228C447.96 620.607 447.068 621.228 446.309 622.091C445.559 622.98 444.988 624.036 444.595 625.26L443.739 624.483C443.994 623.515 444.409 622.589 444.986 621.706C445.573 620.848 446.271 620.095 447.08 619.446C447.864 618.807 448.743 618.307 449.717 617.947ZM430.392 624.381C432.019 623.908 433.553 623.846 434.993 624.196C436.406 624.553 437.628 625.279 438.658 626.374C439.688 627.47 440.459 628.896 440.971 630.655C441.543 632.623 441.667 634.466 441.341 636.184C440.996 637.935 440.263 639.429 439.143 640.666C438.03 641.929 436.608 642.812 434.875 643.316C433.694 643.66 432.561 643.776 431.475 643.665C430.398 643.58 429.488 643.289 428.746 642.794C427.977 642.305 427.479 641.668 427.25 640.88C427.097 640.355 427.132 639.89 427.356 639.483C427.56 639.11 427.925 638.848 428.45 638.695C428.686 638.626 428.917 638.588 429.142 638.579C429.375 638.597 429.612 638.628 429.852 638.671C430.257 640.062 430.894 641.03 431.764 641.574C432.608 642.126 433.646 642.222 434.88 641.863C436.56 641.375 437.651 640.331 438.154 638.733C438.664 637.161 438.561 635.142 437.843 632.675C437.095 630.103 436.041 628.289 434.68 627.233C433.301 626.21 431.641 625.982 429.699 626.547C428.649 626.852 427.699 627.356 426.85 628.058C425.983 628.795 425.261 629.688 424.684 630.738L423.897 629.942C424.25 629.1 424.757 628.297 425.417 627.536C426.06 626.808 426.815 626.176 427.684 625.638C428.518 625.083 429.421 624.663 430.392 624.381ZM412.8 629.016C414.08 628.729 415.13 628.914 415.949 629.571C416.742 630.233 417.321 631.378 417.685 633.005L421.524 650.128C421.332 650.395 421.08 650.648 420.769 650.886C420.438 651.156 420.087 651.403 419.717 651.626C419.32 651.855 418.938 652.024 418.57 652.135L414.553 634.212C414.319 633.171 414.002 632.444 413.601 632.03C413.18 631.648 412.582 631.544 411.808 631.717C411.195 631.855 410.571 632.135 409.938 632.557C409.277 632.985 408.68 633.567 408.144 634.303L407.36 633.429C407.543 632.996 407.901 632.467 408.433 631.844C408.939 631.226 409.567 630.651 410.316 630.119C411.065 629.587 411.893 629.219 412.8 629.016ZM411.978 646.344L423.025 644.077C423.108 644.451 423.143 644.793 423.129 645.104C423.094 645.448 422.998 645.708 422.841 645.883L411.738 648.834C411.655 648.713 411.585 648.589 411.528 648.461C411.478 648.36 411.437 648.243 411.407 648.11C411.312 647.683 411.311 647.305 411.405 646.976C411.506 646.673 411.696 646.463 411.978 646.344ZM403.777 631.454C403.925 632.316 403.793 632.838 403.381 633.02L401.088 634.205L401.435 633.563L404.02 648.594L403.431 648.071L406.013 648.085C406.426 648.07 406.709 648.506 406.862 649.395C405.969 649.687 405.231 649.911 404.648 650.067C404.042 650.254 403.443 650.399 402.85 650.501C401.611 650.714 400.859 650.053 400.595 648.517L398.136 634.213L398.711 634.655L395.347 634.443C395.277 634.039 395.278 633.72 395.348 633.486C395.397 633.284 395.553 633.063 395.817 632.823L403.777 631.454ZM403.498 654.508C404.144 654.397 404.673 654.486 405.083 654.776C405.498 655.093 405.757 655.548 405.858 656.141C405.96 656.733 405.842 657.253 405.502 657.7C405.136 658.151 404.697 658.42 404.185 658.508C403.539 658.62 403.008 658.517 402.593 658.2C402.156 657.914 401.884 657.462 401.777 656.842C401.68 656.277 401.815 655.768 402.181 655.317C402.52 654.87 402.959 654.601 403.498 654.508ZM382.618 634C385.145 633.729 387.227 634.302 388.864 635.721C390.501 637.14 391.461 639.167 391.744 641.803C391.963 643.841 391.737 645.708 391.067 647.402C390.37 649.098 389.323 650.489 387.928 651.574C386.532 652.658 384.87 653.304 382.94 653.511C381.255 653.692 379.762 653.482 378.46 652.879C377.161 652.304 376.102 651.401 375.282 650.169C374.463 648.938 373.958 647.439 373.768 645.672C373.547 643.607 373.771 641.727 374.441 640.033C375.114 638.366 376.162 636.989 377.585 635.902C378.983 634.844 380.661 634.21 382.618 634ZM381.992 635.47C380.171 635.665 378.85 636.549 378.029 638.122C377.182 639.697 376.899 641.803 377.182 644.439C377.465 647.076 378.145 649.051 379.221 650.365C380.297 651.679 381.718 652.241 383.484 652.051C385.305 651.855 386.64 650.97 387.487 649.394C388.338 647.846 388.619 645.726 388.33 643.036C388.047 640.4 387.368 638.425 386.292 637.111C385.192 635.827 383.758 635.28 381.992 635.47ZM368.184 635.924C368.208 636.799 368.003 637.297 367.569 637.418L365.255 638.263L365.686 637.553L366.115 652.758L365.606 652.157L368.037 652.54C368.449 652.61 368.667 653.083 368.692 653.957C367.658 654.15 366.883 654.282 366.365 654.351C365.821 654.448 365.371 654.502 365.016 654.512C364.306 654.532 363.795 654.369 363.485 654.022C363.174 653.675 363.008 653.106 362.985 652.313L362.942 650.797L363.192 650.913L362.741 650.926C361.684 652.213 360.468 653.246 359.096 654.023C357.696 654.8 356.326 655.208 354.988 655.246C351.818 655.335 350.172 653.18 350.048 648.781L349.75 638.208L350.256 638.726L347.202 638.033C347.19 637.623 347.222 637.308 347.298 637.087C347.375 636.894 347.547 636.697 347.815 636.498L355.233 636.289C355.257 637.164 355.053 637.662 354.619 637.783L352.628 638.455L353.018 637.746L353.324 648.607C353.406 651.503 354.539 652.92 356.725 652.859C357.545 652.836 358.36 652.649 359.17 652.298C359.954 651.975 360.68 651.531 361.348 650.965C362.016 650.426 362.574 649.837 363.02 649.195L362.714 649.983L362.368 637.688L362.876 638.248L360.071 637.671C360.059 637.261 360.105 636.945 360.208 636.723C360.284 636.53 360.47 636.333 360.765 636.133L368.184 635.924Z" fill="#446809"/>
</svg>
