<svg width="280" height="34" viewBox="0 0 280 34" fill="none" xmlns="http://www.w3.org/2000/svg">
<path d="M0 33.3883C0 32.8446 0.0671048 32.4368 0.201314 32.1649C0.335524 31.8591 0.536838 31.6552 0.805258 31.5532L4.17727 30.6357L3.42234 31.4513V2.70165L4.2276 3.56822L0 2.5997C0 2.12394 0.0671048 1.75012 0.201314 1.47826C0.335524 1.17241 0.570391 0.917541 0.905915 0.713643H13.6391C16.5917 0.713643 18.9068 1.34233 20.5844 2.5997C22.262 3.85707 23.1008 5.57321 23.1008 7.74813C23.1008 9.14143 22.7653 10.4158 22.0943 11.5712C21.4232 12.7266 20.5005 13.6612 19.3262 14.3748C18.1518 15.0885 16.8265 15.5132 15.3502 15.6492L15.5515 15.2924C17.2292 15.3603 18.739 15.7851 20.0811 16.5667C21.4232 17.3483 22.4801 18.3678 23.2518 19.6252C24.0571 20.8826 24.4597 22.2759 24.4597 23.8051C24.4597 25.7081 24.0067 27.3903 23.1008 28.8516C22.2285 30.2789 20.987 31.4003 19.3765 32.2159C17.766 32.9975 15.8703 33.3883 13.6894 33.3883H0ZM12.8841 31.1964C15.1992 31.1964 16.9607 30.6017 18.1686 29.4123C19.4101 28.1889 20.0308 26.4388 20.0308 24.1619C20.0308 21.7151 19.3765 19.8801 18.068 18.6567C16.793 17.3993 14.914 16.7706 12.4312 16.7706H7.046L7.54929 16.3118V30.7886L7.046 30.1769C7.81771 30.4828 8.7404 30.7376 9.81408 30.9415C10.9213 31.1114 11.9447 31.1964 12.8841 31.1964ZM7.54929 14.9865L6.89502 14.2219C7.02923 14.2899 7.3983 14.3578 8.00225 14.4258C8.60619 14.4598 9.29401 14.4938 10.0657 14.5277C10.871 14.5277 11.6091 14.5277 12.2802 14.5277C14.3604 14.5277 15.9877 14.035 17.1621 13.0495C18.3364 12.064 18.9236 10.6367 18.9236 8.76762C18.9236 6.86457 18.3364 5.42029 17.1621 4.43478C15.9877 3.41529 14.3101 2.90555 12.1292 2.90555C11.3239 2.90555 10.4851 2.97351 9.61276 3.10944C8.77395 3.24538 7.91837 3.44928 7.046 3.72114L7.54929 3.26237V14.9865Z" fill="#222222"/>
<path d="M31.0622 33.3883C31.0622 32.8446 31.1293 32.4198 31.2635 32.1139C31.4313 31.8081 31.6326 31.6212 31.8674 31.5532L35.2395 30.6357L34.4845 31.4513V2.70165L35.1891 3.56822L31.0622 2.5997C31.0622 2.12394 31.1293 1.75012 31.2635 1.47826C31.3977 1.2064 31.6493 0.951525 32.0184 0.713643H53.2068V7.13643C52.6699 7.13643 52.2505 7.06846 51.9485 6.93253C51.6466 6.7966 51.4453 6.57571 51.3446 6.26987L50.0864 2.34483L50.791 2.8036L38.0579 3.51724L38.6115 2.85457V16.057L38.1082 15.7002H48.6269L47.9726 16.057L48.7275 12.4888C49.063 12.4888 49.3986 12.5397 49.7341 12.6417C50.0696 12.7436 50.3548 12.9475 50.5897 13.2534V20.4408C50.3548 20.7466 50.0696 20.9505 49.7341 21.0525C49.3986 21.1204 49.063 21.1544 48.7275 21.1544L47.9223 17.4843L48.6269 17.943H38.1082L38.6115 17.4843V30.9415L38.1082 30.3808L52.1499 31.2984L51.4956 31.961L52.8545 25.8441C53.3242 25.8441 53.6933 25.912 53.9617 26.048C54.2637 26.1839 54.5321 26.3878 54.7669 26.6597V33.3883H31.0622Z" fill="#222222"/>
<path d="M58.0186 33.3883C58.0186 32.8446 58.0858 32.4198 58.22 32.1139C58.3877 31.8081 58.589 31.6212 58.8239 31.5532L61.7933 30.6357L60.5351 31.961L71.708 0.968515C71.8087 0.696651 71.9764 0.492753 72.2113 0.356823C72.4797 0.220891 72.7482 0.135932 73.0166 0.101948C73.3185 0.0339826 73.587 0 73.8218 0C74.0231 0 74.2244 0.0169913 74.4258 0.0509739C74.6606 0.0509739 74.8955 0.0849574 75.1304 0.152925L87.3099 31.8081L85.6994 30.5337L90.1786 31.5023C90.1786 31.944 90.1115 32.3008 89.9773 32.5727C89.8431 32.8446 89.5915 33.1164 89.2224 33.3883H79.1063C79.1063 32.8446 79.1734 32.4198 79.3076 32.1139C79.4754 31.8081 79.6767 31.6212 79.9116 31.5532L83.3339 30.6357L82.881 31.6552L72.1107 3.77211L73.1675 3.67017L62.9508 31.961L62.7999 30.5337L67.2791 31.5023C67.2791 31.944 67.212 32.3008 67.0778 32.5727C66.9771 32.8446 66.7087 33.1164 66.2725 33.3883H58.0186ZM65.6686 22.3778L66.2222 20.2369H79.4586L80.1129 22.3778H65.6686Z" fill="#222222"/>
<path d="M107.433 34C104.48 34 101.88 33.3373 99.6321 32.012C97.3841 30.6527 95.6226 28.8006 94.3476 26.4558C93.1062 24.077 92.4855 21.3413 92.4855 18.2489C92.4855 15.6322 92.9217 13.2194 93.794 11.0105C94.6664 8.8016 95.8743 6.88156 97.4177 5.25037C98.9611 3.58521 100.79 2.29385 102.903 1.37631C105.017 0.458771 107.299 0 109.748 0C111.459 0 113.103 0.22089 114.68 0.662669C116.257 1.07046 117.7 1.68216 119.009 2.49775L118.052 9.63418C117.516 9.63418 117.079 9.54923 116.744 9.37931C116.408 9.2094 116.224 9.0055 116.19 8.76762L115.737 3.72114L116.543 4.9955C115.704 4.28186 114.563 3.72114 113.12 3.31334C111.677 2.87156 110.168 2.65067 108.591 2.65067C106.242 2.65067 104.195 3.22839 102.451 4.38381C100.706 5.50525 99.3637 7.11944 98.4242 9.22639C97.4848 11.3333 97.015 13.8311 97.015 16.7196C97.015 19.6762 97.4848 22.2589 98.4242 24.4678C99.3973 26.6767 100.739 28.3928 102.451 29.6162C104.162 30.8396 106.141 31.4513 108.389 31.4513C110.134 31.4513 111.761 31.0945 113.271 30.3808C114.815 29.6672 115.955 28.7326 116.694 27.5772L115.788 29.5652L116.392 22.5817C117.13 22.5817 117.667 22.6497 118.002 22.7856C118.338 22.9215 118.556 23.1254 118.656 23.3973L118.958 30.024C117.616 31.2474 115.905 32.2159 113.825 32.9295C111.745 33.6432 109.614 34 107.433 34Z" fill="#222222"/>
<path d="M125.772 33.3883C125.772 32.8446 125.839 32.4198 125.974 32.1139C126.141 31.8081 126.343 31.6212 126.578 31.5532L129.95 30.6357L129.195 31.4513V2.70165L130 3.56822L125.772 2.5997C125.772 2.12394 125.839 1.75012 125.974 1.47826C126.108 1.2064 126.36 0.951525 126.729 0.713643H136.845C136.845 1.25737 136.778 1.68216 136.643 1.988C136.509 2.29385 136.308 2.48076 136.039 2.54873L132.466 3.46627L133.322 2.5997V16.1589L132.969 15.7002H150.031L149.678 16.1589V2.70165L150.484 3.56822L146.206 2.5997C146.206 2.12394 146.273 1.75012 146.407 1.47826C146.541 1.2064 146.793 0.951525 147.162 0.713643H157.479C157.479 1.25737 157.412 1.68216 157.278 1.988C157.144 2.29385 156.943 2.48076 156.674 2.54873L153.101 3.46627L153.805 2.5997V31.4003L153.05 30.5337L157.479 31.5023C157.479 31.944 157.412 32.3008 157.278 32.5727C157.177 32.8446 156.926 33.1164 156.523 33.3883H146.206C146.206 32.8446 146.273 32.4198 146.407 32.1139C146.575 31.8081 146.776 31.6212 147.011 31.5532L150.433 30.6357L149.678 31.4513V17.4843L150.031 17.943H132.969L133.322 17.4843V31.4003L132.416 30.5337L136.845 31.5023C136.845 31.944 136.778 32.3008 136.643 32.5727C136.543 32.8446 136.308 33.1164 135.939 33.3883H125.772Z" fill="#222222"/>
<path d="M164.059 33.3883C164.059 32.8446 164.127 32.4198 164.261 32.1139C164.428 31.8081 164.63 31.6212 164.865 31.5532L168.237 30.6357L167.482 31.4513V2.70165L168.186 3.56822L164.059 2.5997C164.059 2.12394 164.11 1.75012 164.21 1.47826C164.345 1.2064 164.579 0.951525 164.915 0.713643H179.359C181.809 0.713643 183.939 1.13843 185.751 1.988C187.596 2.8036 189.123 3.92504 190.331 5.35232C191.539 6.74563 192.445 8.34283 193.049 10.1439C193.653 11.945 193.955 13.8311 193.955 15.8021C193.955 17.8751 193.602 19.965 192.898 22.072C192.193 24.1449 191.17 26.031 189.828 27.7301C188.486 29.4293 186.841 30.8056 184.895 31.8591C182.983 32.8786 180.785 33.3883 178.302 33.3883H164.059ZM178.051 31.0945C179.93 31.0945 181.574 30.7206 182.983 29.973C184.392 29.1914 185.567 28.1549 186.506 26.8636C187.479 25.5382 188.2 24.043 188.67 22.3778C189.173 20.7126 189.425 18.9795 189.425 17.1784C189.425 14.6297 188.989 12.2679 188.116 10.093C187.244 7.91804 185.952 6.18491 184.241 4.89355C182.53 3.56822 180.416 2.90555 177.9 2.90555C176.423 2.90555 175.098 2.9905 173.924 3.16042C172.749 3.33034 171.76 3.55123 170.954 3.82309L171.609 3.05847V30.9415L171.105 30.2279C172.078 30.5337 173.169 30.7546 174.377 30.8906C175.585 31.0265 176.809 31.0945 178.051 31.0945Z" fill="#222222"/>
<path d="M195.98 33.3883C195.98 32.8446 196.047 32.4198 196.181 32.1139C196.349 31.8081 196.55 31.6212 196.785 31.5532L199.755 30.6357L198.496 31.961L209.669 0.968515C209.77 0.696651 209.938 0.492753 210.173 0.356823C210.441 0.220891 210.709 0.135932 210.978 0.101948C211.28 0.0339826 211.548 0 211.783 0C211.984 0 212.186 0.0169913 212.387 0.0509739C212.622 0.0509739 212.857 0.0849574 213.092 0.152925L225.271 31.8081L223.661 30.5337L228.14 31.5023C228.14 31.944 228.073 32.3008 227.939 32.5727C227.804 32.8446 227.553 33.1164 227.184 33.3883H217.068C217.068 32.8446 217.135 32.4198 217.269 32.1139C217.437 31.8081 217.638 31.6212 217.873 31.5532L221.295 30.6357L220.842 31.6552L210.072 3.77211L211.129 3.67017L200.912 31.961L200.761 30.5337L205.24 31.5023C205.24 31.944 205.173 32.3008 205.039 32.5727C204.938 32.8446 204.67 33.1164 204.234 33.3883H195.98ZM203.63 22.3778L204.184 20.2369H217.42L218.074 22.3778H203.63Z" fill="#222222"/>
<path d="M241.862 24.4168L228.777 2.54873L230.236 3.56822L226.059 2.5997C226.059 2.12394 226.126 1.75012 226.26 1.47826C226.395 1.2064 226.646 0.951525 227.015 0.713643H237.383C237.383 1.25737 237.316 1.68216 237.182 1.988C237.048 2.29385 236.846 2.48076 236.578 2.54873L232.753 3.46627L233.407 2.29385L243.372 18.9625L241.862 19.1154L250.318 2.49775L250.72 3.46627L246.593 2.5997C246.593 2.12394 246.644 1.75012 246.744 1.47826C246.878 1.2064 247.13 0.951525 247.499 0.713643H256.206C256.206 1.25737 256.139 1.68216 256.005 1.988C255.87 2.29385 255.669 2.48076 255.401 2.54873L252.129 3.36432L253.035 2.24288L241.862 24.4168ZM235.823 33.3883C235.823 32.8446 235.89 32.4198 236.024 32.1139C236.192 31.8081 236.393 31.6212 236.628 31.5532L240.352 30.6357L239.547 31.8081V19.3703H243.674V31.5532L242.819 30.5337L247.549 31.5023C247.549 31.944 247.499 32.3008 247.398 32.5727C247.298 32.8446 247.063 33.1164 246.694 33.3883H235.823Z" fill="#222222"/>
<path d="M269.431 34C268.424 34 267.284 33.8981 266.009 33.6942C264.734 33.4903 263.459 33.2014 262.184 32.8276C260.942 32.4198 259.801 31.961 258.761 31.4513L259.667 24.5697C259.936 24.094 260.372 23.8561 260.976 23.8561C261.144 23.8561 261.311 23.8731 261.479 23.907C261.68 23.907 261.831 23.941 261.932 24.009L262.284 31.0945L261.378 29.1064C262.049 29.6162 262.855 30.075 263.794 30.4828C264.734 30.8566 265.69 31.1624 266.663 31.4003C267.669 31.6382 268.626 31.7571 269.532 31.7571C271.478 31.7571 273.055 31.1794 274.263 30.024C275.504 28.8686 276.125 27.3903 276.125 25.5892C276.125 24.5697 275.907 23.6862 275.47 22.9385C275.068 22.1909 274.313 21.4603 273.206 20.7466C272.132 20.033 270.589 19.2344 268.575 18.3508C266.462 17.3653 264.784 16.4138 263.543 15.4963C262.301 14.5447 261.412 13.5082 260.875 12.3868C260.338 11.2654 260.07 9.97401 260.07 8.51274C260.07 5.93004 260.925 3.87406 262.637 2.34483C264.381 0.781609 266.68 0 269.532 0C270.907 0 272.384 0.186906 273.961 0.560718C275.538 0.934533 277.081 1.49525 278.591 2.24288L277.836 8.86957C277.299 8.86957 276.863 8.78461 276.527 8.61469C276.225 8.44478 276.058 8.24088 276.024 8.003L275.37 2.90555L276.427 4.7916C275.689 4.00999 274.682 3.38131 273.407 2.90555C272.166 2.42978 270.857 2.1919 269.481 2.1919C267.636 2.1919 266.176 2.66767 265.103 3.61919C264.029 4.57071 263.492 5.84508 263.492 7.44228C263.492 8.42779 263.71 9.31135 264.146 10.093C264.583 10.8406 265.354 11.5712 266.462 12.2849C267.569 12.9985 269.129 13.7971 271.142 14.6807C273.357 15.6662 275.101 16.6347 276.376 17.5862C277.685 18.5377 278.608 19.5742 279.144 20.6957C279.715 21.7831 280 23.0745 280 24.5697C280 26.4388 279.564 28.087 278.691 29.5142C277.819 30.9415 276.594 32.046 275.017 32.8276C273.44 33.6092 271.578 34 269.431 34Z" fill="#222222"/>
</svg>
