<svg width="384" height="135" viewBox="0 0 384 135" fill="none" xmlns="http://www.w3.org/2000/svg">
<path d="M157.816 79.252C158.638 79.6193 159.462 79.9706 160.322 80.2686C161.443 80.6585 162.909 80.8913 164.755 81.29C166.109 81.5832 167.691 81.9722 169.442 82.5869C172.707 83.7234 175.998 84.6705 178.163 85.1992C178.621 85.3105 179.082 85.4228 179.567 85.543C181.41 86.0089 183.737 86.6048 187.921 88.1611C191.887 89.6483 195.064 91.1644 197.456 92.3223C198.671 92.9117 199.666 93.4041 200.447 93.7656C201.791 94.3886 203.38 95.1581 205 95.9541C207.509 97.1846 210.023 98.435 211.471 99.0684C211.988 99.2947 212.538 99.5263 213.125 99.7734C214.746 100.454 216.721 101.286 219.337 102.53C222.092 103.838 223.72 104.762 225.371 105.795C226.042 106.214 226.536 106.785 227.047 107.372C227.776 108.207 228.532 109.071 229.887 109.566C230.203 109.682 230.557 109.771 230.926 109.863C231.607 110.034 232.334 110.21 232.996 110.581C233.226 110.71 233.405 110.878 233.58 111.042C233.774 111.223 233.965 111.4 234.217 111.518C235.162 111.957 236.094 112.34 236.924 112.674C237.995 113.105 238.899 113.455 239.429 113.745C240.37 114.26 241.498 114.585 242.641 114.898C243.517 115.139 244.393 115.368 245.213 115.678C247.559 116.567 250.902 117.448 254.366 118.018C255.683 118.235 256.716 118.685 258.063 119.237C258.899 119.58 259.871 119.964 261.079 120.328C261.767 120.535 262.394 120.489 262.973 120.441C263.507 120.398 264 120.353 264.474 120.503C264.888 120.635 265.114 120.946 265.332 121.24C265.575 121.568 265.807 121.876 266.269 121.889C266.515 121.895 266.828 121.802 267.2 121.688C267.346 121.644 267.503 121.596 267.667 121.55C267.652 121.603 267.644 121.652 267.639 121.688C267.605 121.95 268.053 122.148 268.497 122.337C268.676 122.413 268.851 122.487 268.993 122.564C269.514 122.851 270.554 122.995 271.357 123.053C271.696 123.078 271.998 123.184 272.352 123.307C272.665 123.415 273.027 123.538 273.478 123.622C273.736 123.67 273.932 123.758 274.094 123.831C274.211 123.884 274.311 123.929 274.406 123.944C274.487 123.958 274.558 123.886 274.637 123.805C274.694 123.746 274.756 123.682 274.829 123.643C275.006 123.548 275.227 123.527 275.38 123.566C275.451 123.585 275.506 123.617 275.561 123.648C275.625 123.685 275.689 123.722 275.778 123.737C276.187 123.808 276.592 123.735 277.012 123.656C277.303 123.602 277.602 123.544 277.916 123.529C278.098 123.521 278.284 123.527 278.479 123.557C278.645 123.582 278.822 123.639 278.994 123.693C279.173 123.75 279.349 123.804 279.498 123.818C280.106 123.877 280.681 123.683 281.208 123.502C281.559 123.381 281.893 123.266 282.193 123.233C282.748 123.174 283.042 122.939 283.257 122.765C283.369 122.674 283.46 122.6 283.557 122.575C283.647 122.578 283.738 122.582 283.828 122.587C283.91 122.6 283.996 122.614 284.076 122.605C284.082 122.605 284.088 122.603 284.094 122.603C284.598 122.637 285.097 122.692 285.596 122.744C286.705 122.861 287.798 122.965 288.954 122.78C289.202 122.74 289.45 122.627 289.703 122.512C290.014 122.37 290.321 122.224 290.649 122.204C291.429 122.157 292.234 122.235 293.034 122.306C294.243 122.412 295.407 122.505 296.437 122.133C296.776 122.01 297.1 121.833 297.425 121.655C297.606 121.556 297.788 121.456 297.973 121.364C297.948 121.492 297.941 121.611 297.935 121.721C297.922 121.948 297.91 122.142 297.745 122.327C297.353 122.764 296.918 123.35 297.021 123.726C297.049 123.827 297.05 123.945 297.051 124.062C297.054 124.358 297.056 124.661 297.487 124.744C297.776 124.8 298.522 124.916 298.95 124.632C299.041 124.57 299.089 124.466 299.141 124.35C299.235 124.141 299.346 123.895 299.766 123.783C299.837 123.764 299.914 123.745 299.994 123.727C300.312 123.652 300.67 123.567 300.783 123.394C300.913 123.193 300.849 122.994 300.777 122.763C300.682 122.461 300.571 122.102 300.839 121.611C300.893 121.515 301.013 121.466 301.105 121.43C301.169 121.404 301.219 121.384 301.22 121.356C301.221 121.325 301.191 121.266 301.153 121.19C301.016 120.924 300.778 120.457 301.467 120.334C301.654 120.301 301.872 120.291 302.068 120.283C302.356 120.271 302.596 120.261 302.616 120.176C302.623 120.144 302.627 120.109 302.628 120.074C302.856 120.049 303.08 120.023 303.306 119.997C303.609 120.047 304.013 119.975 304.517 119.882C304.639 119.859 304.768 119.835 304.902 119.812C305.349 119.758 305.798 119.703 306.246 119.646C306.606 119.627 306.995 119.627 307.408 119.662C308.236 119.732 308.99 119.951 309.729 120.162C310.04 120.251 310.349 120.34 310.661 120.414C310.552 120.451 310.454 120.488 310.381 120.528C309.883 120.804 309.733 121.19 309.595 121.545C309.503 121.781 309.416 122.004 309.235 122.17C308.902 122.475 308.989 122.745 309.054 122.944C309.088 123.048 309.114 123.133 309.074 123.193C309.041 123.242 308.951 123.278 308.858 123.315C308.777 123.348 308.693 123.383 308.644 123.426C308.042 123.951 308.285 124.15 308.642 124.439C308.839 124.599 309.069 124.787 309.21 125.071C309.343 125.376 309.335 125.474 309.001 125.664C309.307 125.772 309.613 125.879 309.92 125.985C310.028 125.955 310.093 125.842 310.179 125.657C310.333 125.328 310.989 125.097 311.5 124.914C311.737 124.829 311.944 124.755 312.055 124.688C312.647 124.328 312.397 124.034 312.178 123.774C312.058 123.632 311.947 123.499 311.99 123.373C312.008 123.319 311.959 123.278 311.911 123.236C311.873 123.204 311.834 123.171 311.826 123.132C311.762 122.844 312.095 122.558 312.403 122.291C312.579 122.139 312.746 121.992 312.828 121.856C312.852 121.815 312.871 121.774 312.888 121.734C312.913 121.677 312.937 121.621 312.982 121.569C313.084 121.451 313.318 121.339 313.575 121.216C313.707 121.152 313.845 121.086 313.973 121.015C314.139 120.922 314.181 120.795 314.224 120.662C314.255 120.568 314.287 120.471 314.364 120.381C314.504 120.218 314.829 120.103 315.131 119.995C315.263 119.948 315.39 119.903 315.496 119.855C315.538 119.836 315.556 119.812 315.555 119.784C316.046 119.588 316.514 119.393 316.969 119.202C319.247 118.241 321.205 117.394 324.319 116.951C324.904 116.868 325.528 116.706 326.143 116.51C328.172 116.132 330.204 115.738 332.23 115.332C332.692 115.485 333.227 115.574 333.845 115.59C335.014 115.617 336.143 115.384 337.46 115.104C338.43 114.9 339.546 114.658 340.837 114.48C343.005 114.183 345.24 113.801 347.716 113.192C350.161 112.594 352.957 111.821 354.914 111.229C356.001 110.9 357.154 110.775 358.272 110.641C359.867 110.444 361.197 110.292 361.901 109.628C362.119 109.418 362.296 109.122 362.467 108.834C362.589 108.629 362.709 108.428 362.836 108.266C363.284 108.15 363.727 108.035 364.164 107.922C365.044 107.905 366.375 107.75 367.4 107.071C367.88 106.942 368.353 106.815 368.801 106.695C369.767 106.436 370.72 106.179 371.697 105.911C372.011 105.826 372.323 105.741 372.63 105.657C372.633 105.656 372.636 105.656 372.639 105.655C373.258 105.487 373.961 105.287 374.575 105.118C374.842 105.044 375.101 104.973 375.364 104.9C376.095 104.692 376.791 104.495 377.432 104.316C377.809 104.208 378.195 104.095 378.555 103.992C378.853 103.906 379.117 103.834 379.419 103.746C379.742 103.65 380.048 103.56 380.337 103.477C381.243 103.218 382.279 102.905 383.204 102.628C383.389 102.569 383.498 102.574 383.632 102.593C383.844 102.58 383.833 102.677 383.873 102.755C383.899 102.839 383.975 102.902 383.811 103.041C383.729 103.147 383.65 103.226 383.475 103.311C382.609 103.747 381.63 104.22 380.782 104.636C380.51 104.768 380.22 104.906 379.914 105.051C379.631 105.187 379.384 105.309 379.103 105.442C378.764 105.604 378.397 105.776 378.041 105.943C377.438 106.232 376.78 106.541 376.084 106.859C375.837 106.975 375.592 107.09 375.339 107.207C374.759 107.478 374.085 107.78 373.499 108.049C373.496 108.05 373.492 108.052 373.489 108.054C373.199 108.186 372.905 108.32 372.609 108.454C371.68 108.872 370.774 109.278 369.852 109.686C369.375 109.898 368.843 110.129 368.349 110.345C368.08 110.463 367.808 110.582 367.539 110.699C367.392 110.763 367.242 110.828 367.09 110.894C363.612 112.4 360.084 113.866 356.579 115.266C353.063 116.67 349.483 118.035 345.931 119.331C342.338 120.64 338.769 121.881 335.13 123.073C316.854 128.964 297.966 133.995 277.746 134.571C272.462 134.672 267.184 134.345 261.971 133.622C258.334 133.12 254.66 132.407 251.113 131.544C247.531 130.672 244.079 129.659 240.598 128.482C239.544 128.127 238.471 127.75 237.371 127.348C228.465 124.087 221.024 118.884 212.938 114.634C202.884 109.358 192.409 104.845 182.771 100.251C173.194 95.687 163.418 92.2688 153.706 92.459C153.52 92.4621 153.333 92.466 153.146 92.4717C142.46 92.853 131.958 94.013 121.841 96.792C111.494 99.5614 101.783 104.382 92.1401 110.02C85.5833 113.811 78.9299 117.771 72.0375 121.153C69.024 122.639 65.9233 124.051 62.8402 125.321C60.5123 126.283 58.1705 127.178 55.8217 128.008C55.4917 128.124 55.1464 128.173 54.8627 128.139C54.5792 128.104 54.3801 127.992 54.309 127.819C54.2379 127.647 54.2996 127.425 54.474 127.2C54.6487 126.975 54.9229 126.765 55.2328 126.61C57.4578 125.502 59.6588 124.334 61.8354 123.105C64.219 121.758 66.6012 120.323 68.9193 118.838C69.663 119.299 70.4794 119.509 71.5863 119.168C72.1525 118.993 72.8909 118.624 73.3539 118.185C73.7705 117.789 74.0132 117.379 74.2397 116.989C74.4764 116.581 74.6975 116.194 75.0834 115.869C75.7466 115.312 76.2736 114.603 76.808 113.864C77.0041 113.594 77.1965 113.324 77.4106 113.046C79.5614 111.5 81.669 109.932 83.8041 108.334C84.6962 107.841 85.5301 107.366 86.1781 106.898C86.7601 106.478 87.2226 105.978 87.6615 105.446C87.9937 105.199 88.326 104.951 88.6586 104.704C90.8109 103.107 92.9943 101.515 95.2309 99.9658C97.1487 99.0277 99.1525 98.0561 101.75 96.7266C102.856 96.1623 104.022 95.6718 105.121 95.2324C106.757 94.5756 108.306 94.0026 109.586 93.3027C110.457 92.8281 111.407 92.5317 112.397 92.2354C113.736 91.8335 115.004 91.4911 116.08 90.7764C116.749 90.3296 117.324 89.8839 117.885 89.4668C118.775 88.8045 119.577 88.2337 120.357 87.9639C121.84 87.4513 123.101 86.8312 124.19 86.3066C125.522 85.6699 126.663 85.156 127.743 85.1318C127.908 85.1279 128.099 85.1305 128.314 85.1338C129.474 85.1467 131.22 85.1986 133.661 84.4707C134.54 84.2103 135.278 83.8425 136.055 83.4785C137.172 82.9514 138.313 82.445 139.532 82.4043C139.717 82.3978 139.921 82.4574 140.107 82.5117C140.343 82.5807 140.549 82.6411 140.653 82.5479C140.958 82.2734 141.462 81.9473 142.02 81.5957C142.436 81.3365 142.854 81.0666 143.239 80.792C146.193 80.3034 149.13 79.9008 152.169 79.5625C152.424 79.5349 152.679 79.5092 152.933 79.4854C154.563 79.3328 156.186 79.2562 157.816 79.252ZM192.831 36.4307C197.301 36.4673 201.494 36.7394 205.892 37.1982C212.533 37.9009 219.036 38.9016 225.495 40.3184C236.251 42.6679 246.752 46.2202 256.512 51.4141C266.332 56.4701 274.577 63.4731 283.407 68.042C289.422 71.1574 296.117 72.7548 303.15 72.9873C306.174 73.1058 309.297 73.0011 312.4 72.7471C314.7 72.5602 317.01 72.2903 319.341 71.9521C319.669 71.9046 320.001 71.9234 320.263 72.0098C320.525 72.0964 320.697 72.2427 320.737 72.4248C320.777 72.6071 320.683 72.8141 320.479 73.0029C320.275 73.1913 319.976 73.3453 319.654 73.4355C317.342 74.0817 315.026 74.664 312.698 75.1621C310.087 75.7181 307.462 76.1712 304.764 76.4756C304.304 75.7313 303.745 75.1808 302.634 74.9482C302.077 74.8294 301.288 74.7792 300.715 74.9141C300.208 75.036 299.796 75.2531 299.4 75.457C298.988 75.6702 298.594 75.8696 298.102 75.918C297.269 75.9995 296.479 76.2637 295.579 76.5137C295.256 76.6051 294.928 76.6947 294.592 76.7744C291.977 76.6118 289.297 76.2229 286.709 75.6162C285.732 75.2425 284.872 74.8849 284.106 74.6445C283.417 74.4279 282.747 74.344 282.065 74.2871C281.676 74.1561 281.286 74.0201 280.898 73.8799C278.394 72.9746 275.992 71.9116 273.653 70.7852C272.001 69.6378 270.295 68.4095 268.055 66.9824C267.088 66.3665 266.172 65.6953 265.303 65.0635C263.987 64.1111 262.811 63.2655 261.594 62.7109C260.808 62.3553 260.072 61.828 259.31 61.2969C258.288 60.5851 257.31 59.916 256.168 59.6748C255.452 59.5241 254.815 59.4641 254.195 59.3984C253.224 59.3018 252.318 59.205 251.678 58.9385C250.444 58.4231 249.197 58.156 248.181 57.9707C246.947 57.7429 245.884 57.5627 245.081 57.0146C244.967 56.9343 244.837 56.8363 244.691 56.7256C243.94 56.1501 242.574 55.1774 240.453 54.7559C239.692 54.6045 238.922 54.6054 238.16 54.6113C237.015 54.6103 236.038 54.6626 235.02 54.2412C234.87 54.1787 234.729 54.0493 234.6 53.9316C234.436 53.782 234.291 53.6518 234.172 53.7012C233.823 53.8459 233.296 53.9697 232.718 54.1084C232.311 54.2145 231.889 54.3316 231.487 54.4658C228.753 53.9379 226.034 53.4987 223.196 53.1104C221.9 52.9339 220.694 52.7872 219.393 52.6387C218.79 52.1985 218.153 51.791 217.454 51.4561C216.578 51.0241 215.43 50.7742 213.871 50.4648C212.732 50.2384 211.328 49.9765 209.845 49.6152C208.249 49.2316 206.556 49.0174 205.005 48.9219C203.838 48.85 202.805 48.8547 201.985 48.9014C201.584 48.9242 201.184 48.951 200.76 48.9834C199.08 49.1109 197.103 49.2554 193.22 49.5654C189.612 49.8676 186.551 50.1533 184.328 50.4277C183.148 50.5717 182.201 50.7099 181.488 50.8447C180.236 51.0792 178.731 51.3715 177.212 51.7148C174.847 52.244 172.514 52.9047 171.207 53.3838C170.742 53.5532 170.261 53.7428 169.747 53.9502C168.31 54.5309 166.589 55.2596 164.191 56.2217C161.659 57.2442 160.041 57.7962 158.302 58.2949C157.594 58.4998 156.882 58.4755 156.145 58.4531C155.098 58.422 153.996 58.398 152.785 59.0537C152.502 59.2066 152.214 59.4035 151.913 59.6104C151.359 59.9902 150.75 60.4063 150.051 60.6328C149.807 60.712 149.567 60.7273 149.332 60.7422C149.074 60.7585 148.82 60.7745 148.567 60.876C147.616 61.2573 146.715 61.6553 145.897 62.0117C144.837 62.4733 143.96 62.847 143.372 63.0068C142.324 63.2925 141.28 63.8187 140.195 64.3486C139.359 64.7561 138.531 65.1545 137.675 65.4424C135.225 66.2697 131.926 67.5823 128.439 68.8838C127.121 69.3759 125.908 69.4961 124.391 69.6104C123.439 69.6825 122.334 69.7581 121.033 69.8975C120.285 69.9782 119.685 70.2568 119.121 70.5127C118.588 70.7504 118.142 70.9591 117.621 70.9756C117.163 70.9892 116.834 70.7675 116.523 70.5566C116.176 70.3219 115.852 70.1003 115.383 70.2256C115.134 70.2922 114.842 70.4731 114.496 70.6865C114.364 70.7701 114.224 70.8594 114.074 70.9482C114.074 70.8925 114.07 70.8426 114.065 70.8057C114.028 70.5451 113.537 70.4746 113.051 70.4023C112.857 70.3736 112.664 70.3444 112.502 70.3037C111.913 70.154 110.815 70.2517 109.994 70.3516C109.656 70.393 109.339 70.344 108.968 70.2861C108.639 70.2347 108.266 70.1757 107.794 70.1641C107.525 70.1574 107.313 70.1001 107.137 70.0518C107.01 70.0167 106.901 69.9863 106.803 69.9844C106.718 69.9829 106.656 70.0641 106.586 70.1553C106.536 70.221 106.481 70.2925 106.411 70.3418C106.242 70.4595 106.016 70.5097 105.852 70.4893C105.777 70.4798 105.713 70.4546 105.658 70.4297C105.591 70.4008 105.523 70.3715 105.434 70.3662C105.023 70.3423 104.631 70.4577 104.22 70.5752C103.769 70.7043 103.293 70.8368 102.746 70.792C102.575 70.7778 102.389 70.7323 102.209 70.6885C102.021 70.6427 101.838 70.5985 101.684 70.5918C101.044 70.5656 100.504 70.7778 99.9877 70.9717C99.6457 71.1005 99.3196 71.2208 99.0131 71.2559C98.4512 71.3199 98.1509 71.5536 97.9291 71.7266C97.8141 71.8162 97.7198 71.8901 97.6195 71.9141C97.5271 71.91 97.4332 71.9045 97.3412 71.8984C97.2564 71.8837 97.1683 71.8688 97.0863 71.876C97.0801 71.8765 97.0739 71.8774 97.0678 71.8779C96.7389 71.8501 96.4115 71.8119 96.0854 71.7695C95.9098 71.745 95.7348 71.719 95.56 71.6934C94.4824 71.5353 93.4128 71.3788 92.2807 71.4912C92.0357 71.5155 91.7911 71.6118 91.5414 71.71C91.2356 71.8302 90.9221 71.9527 90.601 71.9482C89.8357 71.9375 89.0595 71.7933 88.2934 71.6504C87.1429 71.4354 86.0266 71.2242 84.9975 71.4795C84.6583 71.5638 84.3274 71.702 83.9955 71.8408C83.8106 71.9181 83.6253 71.9961 83.4389 72.0645C83.4773 71.9405 83.4974 71.8242 83.516 71.7158C83.5547 71.4922 83.5872 71.3008 83.766 71.1367C84.1898 70.749 84.6683 70.2156 84.6108 69.8311C84.5952 69.7268 84.6059 69.6104 84.6176 69.4932C84.647 69.1988 84.6763 68.8985 84.2787 68.7666C84.01 68.6777 83.3234 68.4742 82.891 68.7031C82.7971 68.7531 82.7403 68.8506 82.6772 68.959C82.5636 69.154 82.4281 69.3852 82.016 69.4424C81.9467 69.452 81.8713 69.4605 81.7934 69.4688C81.4822 69.5017 81.1335 69.5383 81.0043 69.6953C80.856 69.876 80.8897 70.0811 80.9291 70.3203C80.9805 70.6322 81.042 71.0033 80.7221 71.4531C80.6586 71.542 80.5361 71.5729 80.4438 71.5967C80.3787 71.6134 80.3285 71.6277 80.3236 71.6543C80.3187 71.6851 80.3405 71.7483 80.3676 71.8281C80.4635 72.1111 80.6294 72.6052 79.9516 72.6318C79.7684 72.639 79.5581 72.6175 79.3705 72.5977C79.0936 72.5685 78.8636 72.5446 78.8334 72.626C78.8222 72.6568 78.8135 72.6901 78.807 72.7246C78.5867 72.7166 78.3663 72.7083 78.1459 72.7002C77.8624 72.6057 77.4656 72.6175 76.9701 72.6318C76.8499 72.6353 76.7229 72.6383 76.5912 72.6406C76.1561 72.6237 75.7207 72.6064 75.2856 72.5889C74.9403 72.5501 74.5722 72.4864 74.184 72.3828C73.4063 72.1752 72.7289 71.8283 72.0678 71.4893C71.7893 71.3464 71.5134 71.2045 71.2338 71.0752C71.3424 71.0585 71.4406 71.0393 71.516 71.0127C72.0316 70.8309 72.2373 70.4775 72.4262 70.1523C72.5518 69.9362 72.6703 69.732 72.8676 69.5996C73.2294 69.3571 73.1914 69.0758 73.1635 68.8682C73.149 68.7605 73.138 68.6719 73.186 68.6191C73.2247 68.5769 73.3149 68.5572 73.4076 68.5361C73.4884 68.5178 73.5722 68.4981 73.6254 68.4639C74.272 68.0485 74.0754 67.8107 73.7895 67.4648C73.6318 67.2742 73.4475 67.0506 73.3617 66.7461C73.2877 66.4233 73.3115 66.3281 73.6508 66.1973C73.3849 66.0393 73.1187 65.8817 72.8529 65.7236C72.7492 65.7346 72.6707 65.8346 72.561 66.001C72.3649 66.2982 71.7215 66.4099 71.2192 66.4971C70.9868 66.5374 70.7838 66.5732 70.6693 66.6191C70.061 66.8637 70.2392 67.1991 70.3969 67.4941C70.4836 67.6564 70.5641 67.8067 70.5033 67.9229C70.4773 67.9726 70.515 68.0223 70.5531 68.0723C70.5825 68.1108 70.6123 68.15 70.6137 68.1904C70.6232 68.485 70.2638 68.7055 69.9301 68.9102C69.7392 69.0273 69.557 69.1399 69.4565 69.2578C69.4259 69.2938 69.4011 69.3306 69.3783 69.3662C69.3451 69.4182 69.313 69.4682 69.2621 69.5107C69.1461 69.6076 68.9063 69.6732 68.644 69.7451C68.5094 69.782 68.3685 69.821 68.2358 69.8662C68.0642 69.9248 68.0028 70.0413 67.9379 70.1631C67.892 70.2493 67.8431 70.3387 67.7543 70.4121C67.5934 70.5446 67.2679 70.5933 66.9662 70.6387C66.8343 70.6584 66.7066 70.6781 66.599 70.7031C66.5552 70.7133 66.5342 70.7342 66.5297 70.7617C66.0317 70.8559 65.5561 70.9511 65.0942 71.0449C62.7843 71.5154 60.7722 71.9219 57.7787 71.6357C57.2105 71.5816 56.6016 71.5941 55.9887 71.6387C54.0376 71.5251 52.051 71.4055 50.0951 71.2822C49.7038 71.0166 49.2254 70.7936 48.6625 70.6182C47.6049 70.2889 46.53 70.2177 45.2348 70.1328C44.2773 70.07 43.2531 69.999 42.0033 69.8115C39.9354 69.4965 37.7966 69.2282 35.4301 69.083C33.0234 68.9384 30.2888 68.8257 28.3891 68.7803C27.3138 68.7554 26.2086 68.512 25.2016 68.2852C23.7199 67.9656 22.4582 67.6792 21.6537 68.0781C21.3939 68.2056 21.1436 68.4284 20.9018 68.6445C20.7295 68.7984 20.5605 68.9489 20.3959 69.0605C19.9596 69.0226 19.5277 68.9847 19.102 68.9463C18.3087 68.6715 17.1024 68.3738 15.9486 68.665C15.4844 68.6244 15.0275 68.5839 14.5951 68.543C13.6795 68.4574 12.6969 68.37 11.7807 68.2822C11.4751 68.2532 11.1994 68.2249 10.8637 68.1953C10.8608 68.195 10.8578 68.1947 10.8549 68.1943C10.2085 68.1351 9.58185 68.0753 8.99162 68.0156C8.72686 67.9901 8.44155 67.9641 8.17521 67.9385C7.48859 67.8733 6.86054 67.8087 6.15568 67.7422C5.79758 67.707 5.45931 67.6721 5.11661 67.6367C4.47944 67.5785 3.9669 67.5208 3.35783 67.4619C2.40443 67.367 1.50271 67.2712 0.564857 67.1738C0.367415 67.1572 0.234134 67.1108 0.16056 67.042C-0.0206356 66.9718 0.00133733 66.8867 0.000404058 66.7988C0.00288803 66.7109 -0.0141174 66.6251 0.167396 66.5596C0.242945 66.4929 0.376908 66.451 0.574623 66.4395C1.51519 66.3665 2.41865 66.2929 3.3754 66.2207C3.98431 66.1762 4.4981 66.1308 5.13615 66.0869C5.47845 66.0594 5.81755 66.0321 6.17619 66.0049C6.88254 65.954 7.51166 65.9022 8.19962 65.8516C8.46627 65.8315 8.75289 65.8111 9.01701 65.791C9.60959 65.7436 10.2382 65.6968 10.8871 65.6504C10.891 65.6501 10.895 65.6507 10.8988 65.6504C11.2331 65.6277 11.5057 65.6039 11.81 65.5811C12.728 65.5114 13.7112 65.4427 14.6283 65.374C15.1164 65.3369 15.6356 65.3011 16.1615 65.2646C16.4419 65.2442 16.7131 65.2235 16.9877 65.2031C17.1372 65.1923 17.2898 65.1816 17.4438 65.1709C20.988 64.916 24.5349 64.6676 28.0805 64.4268C31.6012 64.1858 35.1659 63.9517 38.7016 63.7236C42.2203 63.4955 45.8019 63.2746 49.3139 63.0576C64.8303 62.1037 80.3903 61.1961 95.9096 60.2969C102.625 59.8981 109.265 59.1013 115.652 57.7666C118.632 57.1459 121.596 56.4028 124.501 55.542C127.412 54.6801 130.246 53.7094 133.134 52.6113C134.009 52.2782 134.905 51.9272 135.833 51.5547C143.289 48.576 151.257 46.2464 159.698 43.2891C170.099 39.5465 181.595 36.2834 192.831 36.4307ZM160.065 0C160.806 0.358225 161.526 0.687257 162.336 0.951172C163.381 1.29609 164.731 1.44977 166.441 1.6875C167.729 1.86485 169.212 2.08921 170.896 2.47754C174.065 3.19723 177.308 3.58653 179.405 3.72656C179.854 3.75645 180.306 3.78564 180.788 3.81836C182.608 3.94812 184.892 4.10494 189.143 4.81934C193.155 5.50159 196.506 6.37519 198.989 7.05078C200.255 7.39591 201.31 7.69547 202.119 7.90234C203.501 8.25588 205.193 8.728 206.873 9.21191C209.509 9.96997 212.13 10.76 213.633 11.1377C214.168 11.2721 214.733 11.4054 215.339 11.5498C217.022 11.95 219.048 12.438 221.769 13.249C224.619 14.0974 226.327 14.7612 228.068 15.5293C228.775 15.8413 229.335 16.3317 229.902 16.833C230.709 17.545 231.563 18.2888 232.939 18.5801C233.258 18.6472 233.609 18.6835 233.977 18.7207C234.653 18.7891 235.385 18.8608 236.075 19.1338C236.314 19.2288 236.512 19.3703 236.7 19.5068C236.908 19.6576 237.114 19.8044 237.371 19.8848C238.335 20.1847 239.288 20.4356 240.138 20.6533C241.224 20.9312 242.136 21.1552 242.685 21.3711C243.667 21.7571 244.792 21.9283 245.933 22.0898C246.803 22.2129 247.701 22.3348 248.522 22.5371C250.886 23.1222 254.239 23.5959 257.678 23.7959C258.976 23.8716 260.064 24.2181 261.413 24.6357C262.259 24.8958 263.236 25.187 264.47 25.4473C265.156 25.593 265.765 25.4938 266.329 25.3994C266.848 25.3124 267.33 25.2297 267.809 25.3438C268.232 25.4445 268.482 25.7375 268.721 26.0156C268.98 26.3245 269.226 26.6151 269.678 26.5957C269.918 26.5851 270.218 26.4707 270.575 26.333C270.716 26.2785 270.867 26.2209 271.026 26.1641C271.014 26.2185 271.009 26.2675 271.006 26.3047C270.989 26.5676 271.441 26.7356 271.889 26.8975C272.068 26.9621 272.247 27.0256 272.393 27.0947C272.94 27.3504 273.959 27.4359 274.746 27.4541C275.08 27.4622 275.38 27.554 275.732 27.6602C276.045 27.7543 276.399 27.8599 276.855 27.9258C277.115 27.9633 277.314 28.0436 277.48 28.1104C277.6 28.1587 277.702 28.2 277.797 28.2119C277.837 28.2168 277.873 28.2026 277.909 28.1768C277.945 28.1488 277.981 28.1072 278.019 28.0635C278.072 28.0031 278.129 27.938 278.199 27.8955C278.365 27.7941 278.579 27.7645 278.728 27.7988C278.797 27.8147 278.852 27.8445 278.906 27.874C278.969 27.9084 279.032 27.9437 279.119 27.9561C279.517 28.0124 279.908 27.9255 280.314 27.833C280.76 27.7313 281.226 27.6229 281.751 27.6885C281.918 27.7091 282.087 27.7603 282.256 27.8096C282.432 27.8612 282.604 27.9107 282.749 27.9209C283.34 27.9623 283.89 27.7534 284.396 27.5586C284.732 27.4291 285.05 27.3063 285.349 27.2666C285.9 27.1935 286.175 26.9504 286.379 26.7715C286.485 26.6788 286.571 26.6023 286.664 26.5752C286.752 26.5763 286.84 26.5783 286.927 26.5811C287.007 26.5928 287.091 26.605 287.167 26.5947C287.173 26.5939 287.179 26.5926 287.185 26.5918C287.673 26.6157 288.157 26.661 288.641 26.7031C289.733 26.7972 290.8 26.8797 291.91 26.6768C292.149 26.6329 292.386 26.5159 292.627 26.3965C292.923 26.2502 293.225 26.0995 293.546 26.0742C294.318 26.0134 295.089 26.0818 295.865 26.1426C297.025 26.2348 298.186 26.3099 299.17 25.9287C299.496 25.8027 299.807 25.6233 300.118 25.4424C300.291 25.3416 300.464 25.2402 300.641 25.1475C300.619 25.2753 300.615 25.3931 300.611 25.5029C300.602 25.7296 300.594 25.9241 300.438 26.1104C300.068 26.5507 299.658 27.1405 299.764 27.5146C299.793 27.6162 299.797 27.7337 299.8 27.8516C299.808 28.1471 299.816 28.4494 300.233 28.5283C300.514 28.5817 301.235 28.6908 301.643 28.4033C301.732 28.3408 301.777 28.2364 301.826 28.1201C301.914 27.911 302.018 27.6637 302.426 27.5479C302.495 27.5284 302.57 27.5087 302.648 27.4893C302.958 27.4116 303.305 27.3237 303.411 27.1494C303.533 26.9486 303.468 26.7505 303.394 26.5195C303.297 26.2185 303.183 25.8604 303.435 25.3682C303.485 25.2711 303.601 25.2218 303.689 25.1846C303.751 25.1583 303.798 25.1374 303.799 25.1104C303.8 25.0793 303.769 25.0201 303.731 24.9453C303.594 24.6797 303.356 24.216 304.021 24.0879C304.201 24.0532 304.412 24.0426 304.601 24.0332C304.88 24.0194 305.112 24.0069 305.129 23.9219C305.136 23.8897 305.138 23.8555 305.139 23.8203C305.359 23.7936 305.579 23.7666 305.799 23.7393C306.095 23.7871 306.488 23.7116 306.977 23.6152C307.096 23.5918 307.22 23.5672 307.35 23.543C307.783 23.487 308.216 23.4301 308.65 23.3721C308.998 23.3505 309.373 23.3491 309.776 23.3818C310.583 23.4476 311.319 23.6641 312.039 23.873C312.343 23.9611 312.645 24.0477 312.948 24.1211C312.843 24.1583 312.748 24.1959 312.678 24.2363C312.199 24.5131 312.059 24.8987 311.93 25.2539C311.844 25.4901 311.762 25.7129 311.588 25.8799C311.27 26.1856 311.358 26.4552 311.424 26.6543C311.458 26.7572 311.485 26.8417 311.447 26.9023C311.415 26.951 311.328 26.9876 311.239 27.0254C311.161 27.0583 311.08 27.0933 311.033 27.1367C310.455 27.6639 310.694 27.8615 311.045 28.1494C311.239 28.3081 311.466 28.4946 311.608 28.7783C311.741 29.0817 311.734 29.1795 311.413 29.3711C311.711 29.4772 312.01 29.5834 312.31 29.6885C312.414 29.658 312.475 29.5439 312.556 29.3594C312.702 29.0299 313.334 28.7973 313.827 28.6133C314.055 28.5282 314.253 28.4534 314.36 28.3857C314.928 28.0255 314.683 27.7319 314.467 27.4736C314.349 27.3314 314.239 27.1993 314.278 27.0732C314.294 27.0194 314.247 26.979 314.2 26.9375C314.163 26.9054 314.125 26.8724 314.116 26.833C314.05 26.5457 314.368 26.2583 314.663 25.9912C314.831 25.8383 314.992 25.6915 315.07 25.5557C315.093 25.5144 315.111 25.4739 315.126 25.4346C315.149 25.377 315.172 25.3214 315.214 25.2695C315.311 25.1513 315.538 25.0379 315.786 24.9141C315.913 24.8506 316.046 24.7843 316.169 24.7129C316.329 24.6203 316.367 24.4932 316.408 24.3604C316.436 24.2665 316.466 24.1692 316.539 24.0791C316.673 23.916 316.989 23.8011 317.281 23.6934C317.408 23.6465 317.531 23.5999 317.632 23.5527C317.673 23.5337 317.69 23.5101 317.689 23.4824C318.164 23.2857 318.615 23.0906 319.053 22.8994C321.248 21.9393 323.136 21.0936 326.162 20.6543C326.734 20.5707 327.331 20.4116 327.924 20.2178C329.878 19.8479 331.864 19.4563 333.816 19.0605C334.27 19.2139 334.799 19.3023 335.4 19.3203C336.534 19.3523 337.596 19.1328 338.9 18.8525C339.856 18.6476 340.913 18.4188 342.16 18.25C344.305 17.9514 346.432 17.5934 348.837 17C351.202 16.4192 353.886 15.676 355.815 15.0889C356.851 14.7745 357.977 14.6559 359.076 14.5254C360.593 14.3513 361.925 14.1968 362.589 13.5449C362.796 13.3384 362.963 13.0454 363.123 12.7607C363.238 12.558 363.35 12.3596 363.47 12.1992C363.9 12.0892 364.318 11.9818 364.773 11.8623C365.644 11.8466 366.86 11.7296 367.913 11.04C368.373 10.9174 368.826 10.7966 369.255 10.6836C370.162 10.4445 371.147 10.1756 372.062 9.92871C372.363 9.84755 372.658 9.76894 372.958 9.6875C372.961 9.68672 372.964 9.68535 372.967 9.68457C373.619 9.50384 374.251 9.32964 374.847 9.16699C375.104 9.09657 375.345 9.03223 375.632 8.9502C376.339 8.75017 376.974 8.57544 377.632 8.39062C378.005 8.28387 378.365 8.17961 378.711 8.08203C379.235 7.93813 379.892 7.7424 380.439 7.58691C381.342 7.32864 382.319 7.03861 383.224 6.76953C383.402 6.71359 383.497 6.72325 383.641 6.73828C383.841 6.73051 383.833 6.8259 383.873 6.9043C383.899 6.98861 383.973 7.05157 383.82 7.18652C383.728 7.29635 383.664 7.36981 383.496 7.45215C382.649 7.88104 381.729 8.33083 380.883 8.74609C380.37 8.99904 379.749 9.29188 379.259 9.53223C378.934 9.68923 378.594 9.85073 378.242 10.0166C377.623 10.312 377.024 10.5985 376.355 10.9082C376.082 11.0337 375.857 11.141 375.614 11.2549C375.05 11.5197 374.449 11.7962 373.829 12.0781C373.825 12.0797 373.821 12.0814 373.818 12.083C373.538 12.2125 373.259 12.341 372.976 12.4707C372.108 12.8678 371.171 13.2861 370.31 13.6729C369.85 13.8798 369.36 14.0957 368.863 14.3135C368.58 14.437 368.322 14.5514 368.065 14.665C367.924 14.7268 367.781 14.7894 367.636 14.8525C364.243 16.3334 360.899 17.7437 357.474 19.126C354.039 20.5109 350.637 21.8307 347.167 23.1143C343.707 24.3947 340.227 25.6237 336.732 26.7939C317.961 32.9647 298.568 38.2534 277.745 38.8477C273.901 38.9202 270.124 38.8452 266.309 38.6143C262.837 38.4052 259.298 38.0558 255.818 37.582C252.344 37.11 248.916 36.5166 245.48 35.8027C244.441 35.5876 243.353 35.3502 242.264 35.1006C233.383 33.0673 225.595 29.0421 217.293 26.1885C206.954 22.6279 196.352 20.2728 186.329 17.6543C176.345 15.0099 166.186 13.4192 155.846 13.1377C153.208 13.0628 150.606 13.0631 147.916 13.1445C139.814 13.4052 131.859 13.706 123.885 14.2822C113.215 15.0521 102.749 16.3664 92.557 19.3564C85.6221 21.3531 78.718 23.9603 71.7817 26.4824C68.7537 27.5875 65.6538 28.716 62.6391 29.7832C60.3513 30.5959 58.0647 31.3955 55.7895 32.1758C55.4687 32.2858 55.1326 32.329 54.8549 32.292C54.577 32.2547 54.3801 32.1412 54.309 31.9688C54.2379 31.7961 54.2968 31.5754 54.4672 31.3525C54.6377 31.1301 54.9066 30.9238 55.2104 30.7744C57.3818 29.7067 59.5588 28.6221 61.7406 27.5225C64.1188 26.321 66.5579 25.0764 68.9486 23.8477C69.6249 24.3873 70.4259 24.6702 71.5248 24.4678C72.0885 24.363 72.8336 24.0953 73.3422 23.7168C73.7886 23.3812 74.0675 23.0102 74.3295 22.6582C74.6039 22.2899 74.8566 21.9429 75.2885 21.6709C76.0153 21.2119 76.5934 20.6053 77.2299 19.957C77.4635 19.7203 77.6998 19.48 77.9457 19.2432C80.2572 18.0764 82.5948 16.9203 84.9731 15.8057C85.9341 15.5096 86.8382 15.2294 87.5619 14.9199C88.2098 14.6427 88.7691 14.2606 89.309 13.8486C89.6846 13.6861 90.0607 13.5259 90.4389 13.3662C92.8796 12.3362 95.3608 11.3781 97.8793 10.5059C99.9478 10.1292 102.071 9.77442 104.842 9.23438C106.018 9.00659 107.232 8.86173 108.358 8.74414C110.078 8.55895 111.613 8.42938 112.984 8.08203C113.865 7.85595 114.856 7.80255 115.845 7.75684C117.109 7.70484 118.474 7.65006 119.565 7.2002C120.258 6.91607 120.902 6.60235 121.509 6.31152C122.501 5.84547 123.266 5.45628 124.065 5.33789C125.569 5.1157 126.78 4.73323 127.893 4.39453C129.252 3.98529 130.337 3.65429 131.359 3.7832C131.514 3.80278 131.692 3.8321 131.894 3.86523C132.988 4.0371 134.608 4.32702 136.977 3.86426C137.845 3.69736 138.565 3.40416 139.317 3.11426C140.394 2.69378 141.511 2.28275 142.678 2.3291C142.85 2.33626 143.036 2.41025 143.205 2.47754C143.421 2.56306 143.61 2.63703 143.711 2.55078C144.009 2.29776 144.495 2.00583 145.029 1.68848C145.421 1.45541 145.84 1.20807 146.228 0.953125C146.48 0.923455 146.733 0.8938 146.987 0.864258C149.914 0.527167 152.775 0.286734 155.696 0.141602C157.116 0.0695947 158.62 0.0223377 160.065 0Z" fill="#A5C4D3"/>
</svg>
